<?xml version="1.0" standalone="no"?>
<!DOCTYPE svg PUBLIC "-//W3C//DTD SVG 1.1//EN" "http://www.w3.org/Graphics/SVG/1.1/DTD/svg11.dtd" >
<svg xmlns="http://www.w3.org/2000/svg">
<metadata>Generated by IcoMoon</metadata>
<defs>
<font id="tmix-icon" horiz-adv-x="1024">
<font-face units-per-em="1024" ascent="960" descent="-64" />
<missing-glyph horiz-adv-x="1024" />
<glyph unicode="&#x20;" horiz-adv-x="512" d="" />
<glyph unicode="&#xe900;" glyph-name="angle-up-down" d="M791.488 497.343l-28.562-28.564c-3.33-3.465-7.978-5.642-13.135-5.724-5.165 0.201-9.777 2.35-13.166 5.725l-224.586 224.588-224.589-224.589c-3.289-3.526-7.963-5.724-13.149-5.724s-9.86 2.198-13.14 5.714l-28.572 28.575c-3.527 3.289-5.726 7.962-5.726 13.149s2.199 9.861 5.716 13.14l266.31 266.311c3.29 3.526 7.963 5.724 13.151 5.724s9.861-2.198 13.141-5.714l266.309-266.312c3.526-3.289 5.724-7.963 5.724-13.149s-2.198-9.86-5.713-13.14zM791.488 190.167l-266.299-266.299c-3.29-3.526-7.963-5.724-13.151-5.724s-9.861 2.198-13.141 5.714l-266.309 266.309c-3.527 3.289-5.726 7.963-5.726 13.151s2.199 9.862 5.716 13.141l28.573 28.572c3.33 3.466 7.978 5.644 13.136 5.724 5.164-0.199 9.776-2.348 13.163-5.725l224.588-224.586 224.586 224.586c3.29 3.526 7.963 5.724 13.151 5.724s9.861-2.198 13.141-5.714l28.572-28.572c3.526-3.29 5.724-7.964 5.724-13.151s-2.198-9.861-5.713-13.141z" />
<glyph unicode="&#xe901;" glyph-name="animal" d="M941.36 384.381c2.598 64.855-8.112 292.14-32.509 352.438-5.563 13.476-18.6 22.787-33.811 22.787-0.001 0-0.001 0-0.002 0-16.271 0-63.823-0.041-234.504-121.846-38.545 10.232-82.797 16.108-128.422 16.108-45.548 0-89.728-5.856-131.829-16.857-167.006 122.554-214.54 122.595-230.809 122.595-0.001 0-0.002 0-0.004 0-15.211 0-28.247-9.311-33.72-22.544-24.329-60.156-35.056-284.866-32.642-351.356-20.702-48.644-32.736-105.229-32.736-164.624 0-0.405 0.001-0.809 0.002-1.214 0-276.062 238.262-299.186 461.601-299.186s461.599 23.124 461.599 299.249c0.001 0.304 0.001 0.663 0.001 1.023 0 58.938-11.84 115.111-33.272 166.27zM281.2 158.105c-33.785 0.001-61.174 27.389-61.174 61.175s27.389 61.175 61.175 61.175c33.786 0 61.174-27.388 61.175-61.174-0.034-33.773-27.403-61.143-61.173-61.176zM742.75 158.105c0 0-0.001 0-0.001 0-33.786 0-61.175 27.389-61.175 61.175s27.389 61.175 61.175 61.175c33.786 0 61.174-27.388 61.175-61.174-0.034-33.772-27.402-61.141-61.17-61.176z" />
<glyph unicode="&#xe902;" glyph-name="apron" d="M948.384 245.294c-0.461 0.039-0.997 0.062-1.538 0.062-10.066 0-18.319-7.757-19.109-17.62-4.487-23.829-24.938-41.609-49.597-41.918-3.359-0.634-7.184-0.996-11.094-0.996-14.157 0-27.204 4.75-37.635 12.742-8.047 7.666-13.145 18.634-13.145 30.794 0 0.848 0.025 1.69 0.074 2.526-0.005 20.234 30.482 33.121 43.594 37.721 18.836 6.612 68.887 24.174 62.062 71.514-4.081 28.365-29.289 61.345-121.841 62.111-0.739 5.921-4.123 10.924-8.913 13.854-85.308 48.121-135.159 123.859-152.472 231.561-1.53 9.209-9.435 16.145-18.962 16.148h-6.045c0.985 7.855 1.547 16.944 1.547 26.165 0 48.74-15.701 93.813-42.32 130.437-13.677 17.674-35.624 29.357-60.299 29.357-24.67 0-46.612-11.677-60.6-29.806-26.325-36.176-42.037-81.269-42.037-130.032 0-9.205 0.56-18.28 1.648-27.192l-6.143 1.070c-9.527-0.003-17.433-6.939-18.949-16.036-17.326-107.801-67.177-183.526-152.402-231.626-4.872-2.969-8.255-7.967-8.984-13.79-93.667-0.584-118.781-33.733-122.866-62.221-6.812-47.34 43.226-64.901 62.075-71.526 13.1-4.588 43.587-17.475 43.587-37.824 0.043-0.718 0.068-1.558 0.068-2.403 0-12.166-5.098-23.141-13.274-30.905-10.28-7.902-23.308-12.652-37.444-12.652-3.932 0-7.778 0.368-11.506 1.070-24.309 0.249-44.759 18.029-49.192 41.473-0.859 10.249-9.118 18.002-19.187 18.002-10.602 0-19.197-8.595-19.197-19.197 0-0.533 0.022-1.060 0.064-1.581 6.006-42.097 40.716-74.512 83.447-76.921 4.646-0.529 9.764-0.828 14.951-0.835 0.96-0.035 2.076-0.054 3.198-0.054 23.1 0 44.25 8.348 60.598 22.191 1.391 1.256 2.505 2.931 3.902 4.395v-239.357c0.002-10.603 8.597-19.198 19.2-19.2h538.074c10.603 0.002 19.198 8.597 19.2 19.2v238.226c1.073-1.080 1.879-2.35 3.026-3.377 16.212-13.73 37.364-22.078 60.465-22.078 1.124 0 2.244 0.020 3.359 0.059 5.034 0.002 10.152 0.301 15.186 0.878 42.341 2.362 77.047 34.778 82.996 76.465 0.094 0.931 0.116 1.459 0.116 1.992 0 10.069-7.753 18.328-17.614 19.132zM481.12 794.78c6.842 10.338 18.42 17.063 31.569 17.063s24.726-6.725 31.481-16.923c20.442-29.992 32.588-66.855 32.588-106.556 0-8.664-0.578-17.192-1.699-25.549l-124.867 0.977c-1.008 7.364-1.584 15.875-1.584 24.52 0 39.719 12.15 76.6 32.936 107.129zM177.145 304.831c-39.099 13.724-37.588 24.2-36.787 29.811 2.616 18.12 33.733 28.575 84.088 29.079v-86.011c-13.213 11.825-28.991 21.092-46.367 26.852zM800.92 278.638v85.14c49.82-0.532 80.476-11.11 83.075-29.135 0.814-5.624 2.314-16.087-36.774-29.811-17.876-5.918-33.301-14.857-46.46-26.33z" />
<glyph unicode="&#xe903;" glyph-name="art" d="M286.651 478.131c-6.606 6.596-15.727 10.675-25.8 10.675s-19.194-4.079-25.8-10.676l-161.612-161.612c-6.6-6.604-10.682-15.726-10.682-25.801 0-6.608 1.756-12.806 4.827-18.152 1.629-2.623 3.596-5.041 5.838-7.173l0.205-0.298 0.117-0.097c1.252-1.193 2.608-2.307 4.043-3.317 9.66-6.429 21.393-10.213 34.010-10.213 8.549 0 16.693 1.738 24.096 4.879 4.833 1.261 13.596 3.611 15.409 3.775-0.243-6.035-1.35-11.731-3.2-17.080-3.063-6.595-4.921-14.79-4.921-23.419 0-14.544 5.279-27.856 14.026-38.122 10.099-8.578 23.387-13.847 37.905-13.847 8.64 0 16.844 1.866 24.232 5.216 4.857 1.263 13.62 3.626 15.371 3.875-0.271-6.026-1.39-11.7-3.241-17.033-3.006-6.582-4.83-14.755-4.83-23.354 0-14.515 5.199-27.816 13.836-38.143 10.084-8.564 23.364-13.83 37.875-13.83 8.654 0 16.871 1.873 24.266 5.237 4.858 1.261 13.595 3.611 15.33 3.875-0.259-6.022-1.373-11.698-3.224-17.029-3.007-6.584-4.832-14.756-4.832-23.355 0-14.518 5.203-27.822 13.845-38.147 10.151-8.462 23.445-13.657 37.952-13.657 8.603 0 16.78 1.827 24.162 5.114 4.836 1.26 13.561 3.623 15.248 3.923-0.259-6.027-1.374-11.707-3.227-17.042-2.816-6.565-4.526-14.683-4.526-23.201 0-12.72 3.813-24.549 10.359-34.406 2.936-4.101 6.832-7.644 11.345-10.233 5.157-2.809 11.086-4.406 17.389-4.406 10.072 0 19.192 4.079 25.796 10.675l161.6 161.6c6.599 6.605 10.68 15.726 10.68 25.801s-4.081 19.196-10.68 25.801zM925.237 705.392l-78.113 78.126c-6.605 6.604-15.728 10.688-25.806 10.688-10.071 0-19.19-4.079-25.794-10.676l-155.212-155.212-195.187 37.274c-2.044 0.406-4.395 0.638-6.8 0.638-10.082 0-19.21-4.079-25.826-10.676l-98.449-98.436c-6.604-6.605-10.688-15.729-10.688-25.806 0-10.071 4.079-19.19 10.675-25.793l333.189-333.186c6.603-6.596 15.722-10.675 25.793-10.675s19.19 4.079 25.794 10.676l98.449 98.437c6.608 6.604 10.695 15.73 10.695 25.81 0 2.415-0.235 4.774-0.682 7.058l-37.238 194.967 155.2 155.203c6.598 6.602 10.679 15.721 10.679 25.793s-4.081 19.191-10.68 25.793z" />
<glyph unicode="&#xe904;" glyph-name="baby" d="M887.539 712.719l-232.963 71.949c-1.733 0.562-3.728 0.885-5.798 0.885-7.872 0-14.651-4.682-17.704-11.413-1.135-2.559-27.575-59.898-118.875-59.898s-117.773 57.339-118.787 59.625c-3.142 6.909-9.984 11.626-17.927 11.626-2.083 0-4.090-0.324-5.973-0.925l-232.698-71.849c-7.909-2.502-13.541-9.775-13.541-18.364 0-0.886 0.060-1.758 0.176-2.612l27.202-204.736c1.263-9.21 8.9-16.284 18.261-16.662l61.8-2.39c1.725-38.111 5.514-134.513 5.514-248.274 0-148.163 12.987-286.139 13.125-287.514 0.96-9.789 9.149-17.375 19.109-17.375 0 0 0.001 0 0.001 0h192.026c0.004 0 0.010 0 0.015 0 10.596 0 19.186 8.59 19.186 19.186 0 0.075 0 0.15-0.001 0.225-0.161 15.902 3.313 65.302 20.8 82.976 2.844 3.305 7.032 5.385 11.705 5.385 4.662 0 8.84-2.069 11.667-5.34 15.553-15.682 21.067-59.271 20.891-83.069 0-0.040 0-0.087 0-0.135 0-10.61 8.593-19.213 19.199-19.229h191.953c0 0 0 0 0 0 9.961 0 18.151 7.586 19.107 17.295 0.142 1.467 13.106 139.43 13.106 287.593 0 113.725 3.825 210.15 5.573 248.274l61.727 2.388c9.399 0.379 17.035 7.453 18.288 16.563l27.211 204.936c0.105 0.754 0.165 1.626 0.165 2.512 0 8.588-5.631 15.861-13.402 18.328zM728.819 701.324c-3.932-13.538-16.222-23.265-30.785-23.265-17.673 0-32 14.327-32 32s14.327 32 32 32c3.105 0 6.107-0.442 8.946-1.267 13.316-3.889 23.044-16.19 23.044-30.762 0-3.1-0.44-6.097-1.261-8.932zM845.281 668.254c-3.933-13.536-16.222-23.263-30.784-23.263-17.673 0-32 14.327-32 32s14.327 32 32 32c3.105 0 6.107-0.442 8.946-1.267 13.317-3.888 23.045-16.188 23.045-30.76 0-3.102-0.441-6.1-1.263-8.937z" />
<glyph unicode="&#xe905;" glyph-name="back-layer" d="M962.338 290.593l-128.588 58.65 128.588 58.652c12.694 5.898 21.338 18.54 21.338 33.2s-8.644 27.302-21.113 33.106l-435.25 198.52c-4.447 2.061-9.652 3.263-15.138 3.263s-10.69-1.202-15.366-3.357l-434.797-198.331c-12.694-5.898-21.338-18.54-21.338-33.2s8.644-27.302 21.113-33.106l128.809-58.744-128.584-58.65c-12.694-5.898-21.338-18.54-21.338-33.2s8.644-27.302 21.113-33.106l435.25-198.545c4.446-2.068 9.651-3.275 15.138-3.275s10.692 1.207 15.364 3.369l434.798 198.357c12.694 5.898 21.338 18.54 21.338 33.2s-8.644 27.302-21.113 33.106zM620.297 188.079l-90.018-90.015c-4.633-4.632-11.032-7.498-18.102-7.498s-13.469 2.865-18.102 7.498l-90.019 90.016c-4.632 4.633-7.498 11.032-7.498 18.102 0 14.138 11.461 25.6 25.599 25.6h53.542v67.631l-310.65 141.681 347.125 158.325 347.125-158.325-310.65-141.689v-67.623h53.544c14.138 0 25.599-11.462 25.599-25.6 0-7.069-2.865-13.469-7.498-18.102z" />
<glyph unicode="&#xe906;" glyph-name="back" d="M982.963 300.343h-168.75c-0.323 0-0.617-0.125-0.937-0.141l-2.263 110.691h54.85c25.079 0.127 45.763 18.78 49.072 42.966l30.879 234.034c0.266 1.932 0.417 4.164 0.417 6.432 0 22.076-14.369 40.797-34.265 47.318l-261.854 83.024c-5.189 1.998-11.193 3.155-17.467 3.155-20.176 0-37.557-11.969-45.43-29.193-20.36-37.942-59.455-63.092-104.424-63.092-1.751 0-3.493 0.038-5.225 0.114-1.216-0.073-2.933-0.11-4.657-0.11-44.9 0-83.955 25.021-103.985 61.88-8.259 18.279-25.7 30.349-45.96 30.349-5.495 0-10.782-0.888-15.727-2.528l-263.324-83.524c-20.204-6.599-34.543-25.275-34.543-47.3 0-2.336 0.161-4.635 0.474-6.886l30.771-233.365c3.302-24.491 24.029-43.188 49.141-43.275h54.783l-8.85-436.725c-0.007-0.313-0.011-0.683-0.011-1.053 0-27.404 22.17-49.631 49.552-49.722h585.159c27.392 0.096 49.561 22.324 49.561 49.73 0 0.359-0.004 0.717-0.011 1.074l-2.431 118.978c28.798 6.476 54.175 15.802 77.865 27.951 11.287 5.808 22.406 12.592 32.955 20.123l41.064-42.43c3.474-3.481 8.277-5.634 13.584-5.634 10.599 0 19.191 8.592 19.191 19.191 0 0.006 0 0.013 0 0.019v168.749c-0.002 10.604-8.598 19.199-19.201 19.201zM199.987-12.607l9.2 454.85c0.004 0.189 0.006 0.411 0.006 0.635 0 17.678-14.329 32.010-32.006 32.015h-74.75l-27.625 209.5 241.3 76.525c32.517-53.866 90.737-89.329 157.24-89.329 1.568 0 3.132 0.020 4.691 0.059 1.278-0.049 3.052-0.075 4.833-0.075 66.335 0 124.387 35.466 156.227 88.472l241.684-75.676-27.625-209.475h-74.8c-17.678-0.005-32.006-14.337-32.006-32.015 0-0.223 0.002-0.446 0.007-0.668l5.636-276.384-0.339-0.125c-5.915-2.248-13.246-4.428-20.762-6.118-15.58-4.426-33.207-6.496-46.874-9.203-17.353-1.352-35.236-3.103-49.9-2.822-1.987-0.080-4.319-0.125-6.662-0.125-5.906 0-11.746 0.288-17.504 0.851-7.764 0.277-15.757 1.1-23.591 2.394-28.985 3.836-56.284 12.164-81.432 24.254-9.895 4.714-19.697 10.415-28.951 16.849-7.292 4.899-14.231 10.317-20.758 16.183-5.847 5.041-11.233 10.634-16.069 16.686 3.581-7.682 7.683-14.481 12.365-20.826 5.453-7.754 11.244-14.851 17.493-21.513 8.141-8.926 16.927-17.131 26.33-24.593 23.76-18.962 50.633-34.479 79.668-45.633 8.613-3.501 16.907-6.417 25.404-8.854 8.721-2.89 17.626-5.323 26.735-7.195 20.527-4.854 37.286-6.927 54.503-9.611 15.599-1.571 33.712-2.467 52.035-2.467 1.835 0 3.669 0.009 5.5 0.027 4.653-0.091 9.551 0.448 14.464 0.721l1.984-97.313zM835.448 211.318c-5.932-5.065-12.471-10.003-19.298-14.543l-1.931 57.211 32.341-32.341c-3.336-3.386-7.017-6.842-11.111-10.328z" />
<glyph unicode="&#xe907;" glyph-name="bag" d="M854.326 497.192h-142.174v213.038c-0.032 7.351-3.554 13.872-8.993 17.997l-44.856 49.79c-4.272 4.666-10.389 7.582-17.187 7.588h-258.252c-6.847-0.015-13.002-2.969-17.27-7.668l-43.793-48.593c-6.074-4.224-10-11.169-10-19.030 0-0.029 0-0.058 0-0.087v-213.034h-142.136c-12.825-0.016-23.217-10.411-23.227-23.236v-427.826c0.056-5.804 2.184-11.1 5.678-15.196l93.248-108.168c4.278-4.898 10.534-7.974 17.51-7.974 0.006 0 0.012 0 0.017 0h493.137c6.809 0.004 12.934 2.926 17.195 7.583l98.392 108.229c3.691 4.090 5.949 9.536 5.949 15.508 0 0.006 0 0.013 0 0.019v427.824c-0.015 12.827-10.41 23.222-23.236 23.237zM620.551 697.804v-200.612h-217.062v200.612z" />
<glyph unicode="&#xe908;" glyph-name="basic" d="M566.902 514.943c-0.007 155.187-125.813 280.988-281.001 280.988-155.193 0-281.001-125.808-281.001-281.001s125.808-281.001 281.001-281.001c155.126 0.176 280.832 125.887 281.001 280.998zM1014.551-26.369l-250.076 433.149c-6.423 10.979-18.157 18.237-31.587 18.237s-25.163-7.258-31.493-18.065l-250.169-433.322c-3.073-5.232-4.887-11.523-4.887-18.239 0-20.145 16.33-36.476 36.475-36.476h500.15c20.145 0.001 36.475 16.331 36.475 36.476 0 6.715-1.815 13.007-4.98 18.411z" />
<glyph unicode="&#xe909;" glyph-name="bottom-alignment" d="M914.214 17.067h-135.214v706.063c0 14.138-11.462 25.6-25.6 25.6h-160.811c-14.138 0-25.6-11.462-25.6-25.6v-706.063h-109.614v504.502c0 14.138-11.462 25.6-25.6 25.6h-160.824c-14.138-0.001-25.599-11.462-25.6-25.6v-504.502h-135.212c-14.138 0-25.6-11.462-25.6-25.6s11.462-25.6 25.6-25.6h804.075c14.138 0 25.6 11.462 25.6 25.6s-11.462 25.6-25.6 25.6zM618.189 17.067v680.463h109.611v-680.463z" />
<glyph unicode="&#xe90a;" glyph-name="cancel" d="M563.602 388.28l372.736 372.725c6.581 6.599 10.65 15.706 10.65 25.763 0 20.151-16.336 36.487-36.487 36.487-10.057 0-19.164-4.069-25.764-10.651l-372.737-372.725-372.736 372.727c-6.603 6.603-15.725 10.687-25.8 10.687-20.151 0-36.487-16.336-36.487-36.487 0-10.076 4.084-19.197 10.687-25.8l372.736-372.725-372.736-372.724c-6.603-6.603-10.687-15.725-10.687-25.801 0-20.151 16.336-36.487 36.487-36.487 10.076 0 19.198 4.084 25.8 10.687l372.736 372.728 372.738-372.728c6.603-6.603 15.724-10.686 25.8-10.686 20.151 0 36.487 16.336 36.487 36.487 0 10.076-4.084 19.198-10.687 25.801z" />
<glyph unicode="&#xe90b;" glyph-name="cart" d="M1019.287 580.259c0.020 0.504 0.151 0.975 0.151 1.482 0 0.576-0.141 1.113-0.169 1.682-0.068 1.504-0.214 2.908-0.438 4.286-0.146 0.873-0.361 1.93-0.627 2.98-0.374 1.461-0.75 2.641-1.182 3.793-0.313 0.833-0.748 1.885-1.242 2.922-0.512 1.070-1.078 2.097-1.69 3.113-0.594 0.98-1.208 1.925-1.887 2.844-0.778 1.041-1.536 1.952-2.336 2.825-0.724 0.8-1.489 1.589-2.311 2.342-0.855 0.784-1.778 1.549-2.737 2.267-1.018 0.759-1.96 1.401-2.948 2.003-1.001 0.609-2.028 1.165-3.103 1.684-0.898 0.449-2.044 0.938-3.219 1.37-0.849 0.294-1.376 0.62-1.986 0.804-0.527 0.159-1.057 0.174-1.585 0.307-1.005 0.266-2.284 0.521-3.586 0.705-1.363 0.191-2.52 0.322-3.685 0.376-0.591 0.028-1.147 0.176-1.746 0.176h-722.335l-46.077 151.836c-4.695 15.105-18.545 25.883-34.913 25.886h-138.263c-20.145 0-36.475-16.33-36.475-36.475s16.33-36.475 36.475-36.475h111.214l163.487-538.775c0.11-0.366 0.369-0.635 0.492-0.996 1.173-3.556 2.733-6.644 4.679-9.445 0.198-0.275 0.533-0.595 0.823-0.976 1.943-2.525 4.122-4.721 6.547-6.618 0.495-0.381 0.851-0.746 1.279-1.049 2.545-1.808 5.467-3.342 8.587-4.46 0.926-0.322 1.591-0.509 2.283-0.711 2.973-0.953 6.397-1.535 9.948-1.605l0.264-0.039 0.084 0.013 514.68 0.026c3.584 0.070 7.006 0.651 10.232 1.672 0.438 0.133 1.109 0.322 1.79 0.565 3.368 1.199 6.286 2.732 8.94 4.612 0.317 0.229 0.683 0.6 1.1 0.925 2.49 1.945 4.657 4.126 6.526 6.548 0.365 0.482 0.713 0.814 1 1.224 1.858 2.671 3.412 5.747 4.508 9.032 0.199 0.622 0.461 0.898 0.576 1.269l117.463 386.939c0.164 0.542 0.182 1.088 0.32 1.63 0.246 0.925 0.488 2.123 0.67 3.341 0.214 1.329 0.356 2.689 0.418 4.069zM897.175 424.755h-88.502l18.286 120.512h106.801zM838.444 231.28h-59.128l18.289 120.525h77.427zM644.739 231.28v120.525h79.078l-18.289-120.525zM510.994 231.28l-18.294 120.525h79.089v-120.525zM378.045 231.28l-36.575 120.525h77.44l18.296-120.525zM571.789 424.755h-90.163l-18.294 120.512h108.457zM644.739 545.267h108.434l-18.286-120.512h-90.148zM389.545 545.267l18.294-120.512h-88.504l-36.572 120.512zM800.325 118.927c-55.344-0.001-100.209-44.866-100.209-100.21s44.866-100.21 100.21-100.21c55.344 0 100.21 44.866 100.21 100.21 0 0 0 0.001 0 0.001-0.065 55.319-44.892 100.145-100.205 100.209zM800.325-8.533c-15.049 0.001-27.249 12.201-27.249 27.25s12.2 27.25 27.25 27.25c15.049 0 27.249-12.199 27.25-27.249-0.004-15.049-12.202-27.248-27.251-27.251zM416.189 118.927c0 0-0.001 0-0.001 0-55.344 0-100.21-44.866-100.21-100.21s44.866-100.21 100.21-100.21c55.344 0 100.21 44.866 100.21 100.21 0 0 0 0.001 0 0.001-0.066 55.317-44.891 100.142-100.202 100.208zM416.189-8.533c0 0-0.001 0-0.001 0-15.050 0-27.25 12.2-27.25 27.25s12.2 27.25 27.25 27.25c15.049 0 27.249-12.199 27.25-27.249s-12.199-27.25-27.248-27.251z" />
<glyph unicode="&#xe90c;" glyph-name="decoration-text" d="M826.138-81.094c-16.214 0.017-29.95 10.605-34.69 25.242-15.185 47.718-30.661 86.819-48.374 124.663-5.325-6.776-14.654-7.043-24.045-7.043-57.066 0-111.829 9.863-162.676 27.977-81.139-102.341-184.763-170.829-312.589-170.829-103.913 0-160.476 36.413-189.624 66.964-30.751 33.068-49.623 77.547-49.623 126.433 0 4.408 0.153 8.781 0.455 13.113-0.058 0.39-0.072 1.536-0.072 2.685 0 71.193 55.219 129.489 125.164 134.394 4.074 0.428 8.304 0.659 12.588 0.659 56.531 0 103.686-40.146 114.51-93.483 0.504-2.719 0.719-4.983 0.719-7.297 0-20.147-16.333-36.48-36.48-36.48-17.982 0-32.925 13.010-35.929 30.131-5.095 19.89-22.675 34.192-43.594 34.192-2.378 0-4.713-0.185-6.992-0.541-12.483-0.782-54.234-8.118-57.071-68.268-0.223-2.668-0.35-5.774-0.35-8.909 0-29.407 11.19-56.201 29.544-76.355 27.618-28.934 74.932-44.284 136.756-44.284 94.461 0 175.375 50.386 244.413 127.462-48.427 25.016-89.913 55.767-125.746 92.106-81.243 84.28-103.28 177.554-56.194 237.716 23.95 31.579 61.497 51.766 103.759 51.766 9.673 0 19.099-1.058 28.169-3.063 62.15-11.24 133.824-62.527 201.661-138.001 52.262 111.742 103.795 247.916 145.792 388.21 10.49 37.224 24.273 47.879 40.545 47.879 20.145 0 36.476-16.331 36.476-36.476 0 0 0-0.001 0-0.001v-596.611c37.77 15.31 70.359 33.739 100.146 55.743 4.687 3.45 12.107 6.041 20.132 6.041 20.148 0 36.482-16.333 36.482-36.482 0-12.082-5.874-22.793-14.921-29.432-40.767-30.267-87.717-55.236-138.194-72.63l-3.645-130.705c0-0.002 0-0.004 0-0.006 0-18.18-13.303-33.253-30.705-36.017-1.885-0.301-3.82-0.459-5.792-0.462zM606.376 150.456c30.596-8.994 65.864-14.574 102.301-15.428-19.279 35.722-37.79 65.215-57.676 93.677-12.588-29.273-28.211-54.374-44.624-78.249zM691.389 296.806c33.822-44.986 65.97-95.847 93.927-149.248l4.372-5.891v389.901c-33.46-94.875-66.638-172.384-104.011-247.437zM409.226 427.681c-0.192 0.002-0.418 0.004-0.644 0.004-18.527 0-34.899-9.223-44.776-23.329-22.729-29.076-1.668-87.487 51.096-142.225 33.817-34.198 73.421-62.584 117.239-83.585 25.615 30.887 48.703 67.6 69.475 105.757-61.354 82.353-127.179 132.851-177.304 141.927-4.518 0.888-9.728 1.415-15.055 1.451z" />
<glyph unicode="&#xe90d;" glyph-name="design" d="M933.051 712.88l-252.7 79.238c-5.425 1.98-11.688 3.125-18.219 3.125-21.719 0-40.48-12.663-49.303-31.009-19.015-34.385-54.746-57.059-95.773-57.059-1.774 0-3.538 0.042-5.291 0.126-1.245-0.082-2.993-0.124-4.752-0.124-40.889 0-76.529 22.474-95.241 55.743-8.904 19.513-27.683 32.462-49.486 32.462-5.868 0-11.517-0.938-16.805-2.672l-254.518-79.841c-21.877-6.97-37.445-27.11-37.445-50.887 0-2.522 0.175-5.004 0.514-7.433l29.743-223.196c3.69-26.299 26.009-46.324 53.018-46.387h47.305l-8.425-411.588c-0.007-0.333-0.012-0.725-0.012-1.118 0-29.523 23.928-53.457 53.448-53.467h565.815c29.513 0.004 53.436 23.93 53.436 53.443 0 0.384-0.004 0.767-0.012 1.149l-8.463 411.582h47.364c26.987 0.102 49.269 20.113 52.93 46.103l29.845 223.859c0.292 2.098 0.459 4.522 0.459 6.985 0 23.793-15.558 43.953-37.056 50.861zM870.151 457.916h-67.502c-0.002 0-0.004 0-0.006 0-20.146 0-36.477-16.331-36.477-36.477 0-0.263 0.003-0.526 0.008-0.787l8.813-428.909h-525.961l8.786 428.948c0.005 0.223 0.008 0.487 0.008 0.751 0 20.144-16.33 36.474-36.474 36.474-0.003 0-0.006 0-0.009 0h-67.5l-25.35 190.266 224.587 70.434c33.405-51.056 90.317-84.317 154.998-84.317 1.385 0 2.767 0.015 4.145 0.046 1.374-0.053 3.232-0.081 5.097-0.081 64.25 0 120.715 33.336 153.040 83.656l225.159-69.737zM637.813 562.468c-0.005 0-0.010 0-0.015 0-10.318 0-19.643-4.255-26.314-11.106l-48.571-48.281 121.712-121.712 48.563 48.563c6.671 6.775 10.798 16.072 10.823 26.333-0.081 10.352-4.191 19.723-10.836 26.642l-68.739 68.448c-6.816 6.824-16.219 11.062-26.613 11.114zM300.765 240.932v-121.714h121.712l243.422 243.427-121.709 121.709zM406.963 156.67h-31.302v37.447h-37.447v31.301l26.624 26.624 68.749-68.749zM553.551 434.618c0.088 0.005 0.191 0.007 0.295 0.007 3.395 0 6.148-2.753 6.148-6.148 0-0.104-0.003-0.208-0.008-0.311 0.001-0.009 0.001-0.038 0.001-0.066 0-1.915-0.784-3.648-2.048-4.894l-158.577-158.577c-1.247-1.265-2.979-2.048-4.895-2.048-0.028 0-0.057 0-0.085 0.001-0.084-0.005-0.188-0.007-0.292-0.007-3.395 0-6.148 2.752-6.148 6.148 0 0.103 0.003 0.206 0.008 0.308-0.001 0.009-0.001 0.037-0.001 0.065 0 1.917 0.784 3.651 2.050 4.898l158.574 158.574c1.248 1.267 2.982 2.052 4.899 2.052 0.028 0 0.056 0 0.083 0z" />
<glyph unicode="&#xe90e;" glyph-name="equal" d="M914.324 558.154c-0.008-30.295-24.565-54.852-54.86-54.861h-694.928c-30.295 0.008-54.852 24.565-54.861 54.86v109.728c0.008 30.295 24.565 54.852 54.86 54.861h694.928c30.295-0.008 54.852-24.565 54.861-54.86zM914.324 119.255c-0.008-30.295-24.565-54.852-54.86-54.861h-694.928c-30.295 0.008-54.852 24.565-54.861 54.86v109.728c0.008 30.295 24.565 54.852 54.86 54.861h694.928c30.295-0.008 54.852-24.565 54.861-54.86z" />
<glyph unicode="&#xe90f;" glyph-name="event" d="M724.070 466.081l139.077 158.886c5.61 6.382 9.034 14.805 9.034 24.028 0 20.143-16.329 36.472-36.472 36.472-0.004 0-0.009 0-0.013 0h-522.874v-438.787h522.875c0.004 0 0.009 0 0.013 0 20.142 0 36.471 16.329 36.471 36.471 0 9.223-3.423 17.646-9.068 24.068zM224.852 832.143c-0.069 0-0.152 0-0.234 0-40.009 0-72.443-32.434-72.443-72.443 0-26.665 14.406-49.964 35.86-62.541l0.341-741.768c0-20.145 16.33-36.475 36.475-36.475s36.475 16.33 36.475 36.475v741.583c21.795 12.761 36.202 36.061 36.202 62.726 0 40.009-32.434 72.443-72.443 72.443-0.082 0-0.164 0-0.246 0z" />
<glyph unicode="&#xe910;" glyph-name="file-text-with-pen" d="M228.411 357.506h344.612c0.178-0.007 0.386-0.012 0.595-0.012 8.328 0 15.078 6.751 15.078 15.078 0 0.209-0.004 0.418-0.013 0.625l0.001 31.294c0.007 0.178 0.012 0.386 0.012 0.596 0 8.328-6.751 15.078-15.078 15.078-0.209 0-0.418-0.004-0.625-0.013l-344.582 0.001c-0.178 0.007-0.386 0.012-0.595 0.012-8.328 0-15.078-6.751-15.078-15.078 0-0.21 0.004-0.418 0.013-0.625l-0.001-31.294c-0.007-0.178-0.012-0.386-0.012-0.595 0-8.328 6.751-15.078 15.078-15.078 0.209 0 0.418 0.004 0.625 0.013zM713.986 99.064v-117.484h-626.552v751.849h375.939v-203.625c0-0.063 0-0.137 0-0.211 0-25.834 20.942-46.776 46.776-46.776 0.075 0 0.15 0 0.225 0.001h206.985l57.981 57.979c-1.483 11.916-4.463 22.75-8.779 32.878-5.371 13.626-13.327 25.982-23.249 36.459l-152.675 152.672c-10.424 9.874-22.78 17.831-36.427 23.231-13.418 6.064-28.163 9.624-43.691 10.053l-438.745 0.003c-0.237 0.004-0.516 0.007-0.796 0.007-12.737 0-24.247-5.253-32.482-13.711-8.468-8.25-13.715-19.752-13.715-32.479 0-0.283 0.003-0.566 0.008-0.849l-0.001-783.156c-0.005-0.24-0.007-0.523-0.007-0.806 0-12.727 5.247-24.228 13.696-32.459 8.256-8.477 19.768-13.73 32.506-13.73 0.278 0 0.556 0.003 0.833 0.008l657.848-0.001c0.050 0 0.109 0 0.168 0 25.857 0 46.819 20.961 46.819 46.819 0 0.060 0 0.12 0 0.18v195.808zM526.023 729.518c7.75-2.254 14.463-5.954 20.145-10.823l153.141-153.153c4.808-5.61 8.508-12.323 10.667-19.694l-183.953-0.379zM228.411 294.855c-0.171 0.007-0.371 0.011-0.572 0.011-8.34 0-15.101-6.761-15.101-15.101 0-0.201 0.004-0.401 0.012-0.601l-0.001-31.308c-0.007-0.171-0.011-0.372-0.011-0.574 0-8.34 6.761-15.101 15.101-15.101 0.201 0 0.401 0.004 0.6 0.012l238.295-0.001 62.661 62.664zM228.411 169.543c-0.171 0.007-0.371 0.011-0.572 0.011-8.34 0-15.101-6.761-15.101-15.101 0-0.201 0.004-0.401 0.012-0.601l-0.001-31.298c-0.007-0.174-0.011-0.379-0.011-0.584 0-8.34 6.761-15.102 15.102-15.102 0.201 0 0.401 0.004 0.6 0.012l192.609-0.001v62.664zM776.507 487.659l135.89-135.89-317.071-317.059h-135.877v135.89zM576.458 80.002l54.725 54.74-71.716 71.716-54.728-54.738v-26.424h45.292v-45.294zM784.064 419.722c-1.802 2.233-4.54 3.65-7.607 3.65-3.275 0-6.174-1.614-7.942-4.091l-165.163-165.17c-2.215-1.969-3.603-4.826-3.603-8.007 0-5.908 4.79-10.698 10.698-10.698 3.181 0 6.038 1.389 7.998 3.593l165.153 165.151c2.505 1.79 4.119 4.688 4.119 7.963 0 3.069-1.417 5.806-3.631 7.595zM986.002 425.377l-43.415-43.405-135.877 135.89 43.402 43.402c8.233 8.166 19.571 13.212 32.087 13.212s23.854-5.046 32.090-13.215l71.713-71.713c8.166-8.232 13.212-19.57 13.212-32.086s-5.046-23.853-13.215-32.089z" />
<glyph unicode="&#xe911;" glyph-name="first-layer" d="M983.676 349.193c-0.008 14.658-8.648 27.296-21.113 33.106l-128.814 58.76 128.589 58.659c12.694 5.898 21.338 18.54 21.338 33.2s-8.644 27.302-21.113 33.106l-435.25 198.52c-4.447 2.061-9.652 3.263-15.138 3.263s-10.69-1.202-15.366-3.357l-434.797-198.331c-12.694-5.898-21.338-18.54-21.338-33.2s8.644-27.302 21.113-33.106l128.812-58.753-128.588-58.666c-12.694-5.898-21.338-18.54-21.338-33.2s8.644-27.302 21.113-33.106l128.809-58.744-128.584-58.65c-12.694-5.898-21.338-18.54-21.338-33.2s8.644-27.302 21.113-33.106l435.25-198.521c4.446-2.068 9.651-3.275 15.138-3.275s10.692 1.207 15.364 3.369l434.798 198.332c12.694 5.898 21.338 18.54 21.338 33.2s-8.644 27.302-21.113 33.106l-128.795 58.75 128.57 58.644c12.694 5.899 21.337 18.54 21.337 33.2zM548.651 207.504v-80.203l197.198 89.947 113.452-51.755-347.125-158.325-347.125 158.325 113.472 51.745 197.178-89.937v80.203l-310.65 141.689 113.461 51.763 197.189-89.953v106.294h-53.542c0 0 0 0-0.001 0-14.138 0-25.6 11.462-25.6 25.6 0 7.070 2.866 13.47 7.499 18.103l90.019 90.014c4.633 4.632 11.032 7.498 18.102 7.498s13.469-2.865 18.102-7.498l90.017-90.014c4.633-4.633 7.499-11.033 7.499-18.103 0-14.138-11.462-25.6-25.6-25.6 0 0 0 0-0.001 0h-53.544v-106.294l197.186 89.951 113.464-51.761z" />
<glyph unicode="&#xe912;" glyph-name="font" d="M1013.976 30.018c-1.691 0.893-3.696 1.417-5.824 1.417-2.828 0-5.439-0.926-7.548-2.491-6.938-5.484-14.757-10.706-22.98-15.291-4.486-1.919-8.649-2.766-13.010-2.766-0.506 0-1.009 0.011-1.509 0.034-0.378-0.055-0.898-0.084-1.425-0.084-6.679 0-12.243 4.774-13.467 11.095-2.205 8.594-3.463 18.361-3.463 28.422 0 2.556 0.081 5.093 0.241 7.608l-0.017 200.155c0.218 3.724 0.342 8.079 0.342 12.463 0 34.143-7.523 66.53-21.002 95.592-24.728 44.82-72.74 68.245-142.14 68.245-3.938 0.278-8.534 0.436-13.166 0.436-46.209 0-88.736-15.767-122.493-42.214-25.872-18.854-43.691-48.315-47.101-82.032-0.040-0.507-0.040-0.527-0.040-0.548 0-15.572 5.619-29.831 14.94-40.861 9.945-11.886 24.899-19.45 41.621-19.45 0.963 0 1.921 0.025 2.872 0.075 0.277-0.016 0.761-0.022 1.246-0.022 11.133 0 21.544 3.092 30.421 8.464 14.838 9.496 24.707 26.168 24.707 45.145 0 1.657-0.075 3.297-0.223 4.916-0.38 7.29-1.344 14.309-2.844 21.127-0.979 4.376-1.8 10.559-2.129 16.873 0.024 11.663 6.679 21.471 16.302 26.067 12.287 7.169 26.84 11.377 42.372 11.424 30.714 0 50.051-8.675 59.064-26.425 5.781-15.783 9.125-34.006 9.125-53.010 0-4.317-0.173-8.593-0.511-12.823l0.036-33.092c-68.631-23.61-127.31-50.507-182.805-82.329l4.982 2.605c-20.873-13.664-38.401-30.523-52.38-50.093l-201.82 577.392c-5.118 14.37-18.604 24.473-34.45 24.475h-70.963c-0.003 0-0.007 0-0.012 0-15.74 0-29.151-9.974-34.258-23.947l-260.892-730.153c-1.348-3.653-2.127-7.873-2.127-12.274 0-20.145 16.331-36.476 36.476-36.476 0 0 0.001 0 0.001 0h64.512c15.919 0 29.457 10.199 34.434 24.419l69.978 204.681h249.938l68.163-204.175c4.973-14.606 18.571-24.925 34.578-24.925 0.008 0 0.015 0 0.023 0h64.511c9.916 0.062 18.88 4.089 25.395 10.574 14.477-6.897 31.462-10.923 49.388-10.923 0.045 0 0.091 0 0.136 0 34.662 1.125 66.647 11.698 93.724 29.21 17.873 11.059 33.902 22.713 49.009 35.428 2.603-13.863 7.99-25.595 15.21-35.954 12.269-16.546 32.115-27.374 54.49-27.374 1.781 0 3.546 0.069 5.293 0.203 23.895 0.393 46.103 8.278 64.262 21.414 13.911 9.651 26.166 21.032 36.638 33.921 2.069 2.513 3.169 5.349 3.169 8.441 0 0.003 0 0.006 0 0.010v26c0 0.004 0 0.010 0 0.015 0 4.946-2.815 9.235-6.929 11.351zM253.063 288.518l79.050 233.125 79.063-233.125zM694.976 81.619c0 32.75 22.188 63.075 65.887 90.075 21.543 12.999 46.473 24.806 72.603 34.075l2.909-139.652c-0.776-15.942-10.321-29.483-23.884-35.966-16.257-10.476-35.807-16.664-56.797-16.734-0.21-0.002-0.436-0.004-0.662-0.004-13.322 0-25.626 4.355-35.568 11.718-15.055 11.765-24.747 30.11-24.747 50.719 0 2.031 0.094 4.039 0.278 6.022z" />
<glyph unicode="&#xe913;" glyph-name="food" d="M512.176-59.925c32.284 0 54.899-21.901 134.323-21.901 103.613 0 214.026 169.413 251.116 323.41s12.49 327.734-141.499 380.065c-155.794 52.943-220.326-33.882-243.94-33.882s-88.145 86.825-243.939 33.882c-153.989-52.332-178.588-226.066-141.499-380.065s147.502-323.41 251.116-323.41c79.424 0 102.039 21.901 134.323 21.901zM635.364 672.481c22.301 22.37 36.090 53.236 36.090 87.324 0 11.289-1.512 22.224-4.345 32.614-9.351 1.789-20.321 3.315-31.647 3.315-68.125 0-123.351-55.226-123.351-123.351 0-11.326 1.526-22.295 4.385-32.714 9.321-1.766 20.256-3.278 31.544-3.278 34.087 0 64.954 13.789 87.327 36.093z" />
<glyph unicode="&#xe914;" glyph-name="frame" d="M1000.75 524.579c-0.038 34.57-17.287 65.104-43.637 83.498 4.904 3.783 9.482 7.484 13.735 11.523 18.459 18.513 29.902 44.123 29.902 72.406s-11.443 53.893-29.952 72.453c-4.701 4.53-9.798 8.735-15.205 12.528-5.439 3.529-11.247 6.614-17.322 9.195-6.206 2.638-12.63 4.67-19.29 6.058-6.669 1.458-13.56 2.227-20.631 2.227s-13.962-0.769-20.595-2.227c-6.667-1.34-13.094-3.374-19.198-6.014-6.202-2.624-12.011-5.709-17.502-9.244-5.354-3.788-10.451-7.993-15.195-12.562-10.626-10.988-18.896-24.402-23.885-39.318-14.057 40.291-52.19 69.306-97.1 69.306-44.282 0-81.975-28.209-96.089-67.637-14.714 39.448-52.498 67.638-96.866 67.638s-82.152-28.19-96.418-67.636c-14.564 39.427-52.259 67.636-96.542 67.636-44.758 0-82.786-28.818-96.54-68.912-5.434 14.771-13.655 28.041-24.259 38.99-4.676 4.504-9.772 8.709-15.178 12.502-5.435 3.526-11.24 6.61-17.309 9.193-6.176 2.592-12.598 4.621-19.242 6.047-6.76 1.471-13.699 2.239-20.818 2.239s-14.058-0.769-20.739-2.227c-6.587-1.387-12.92-3.418-18.948-6.021-6.122-2.457-11.936-5.549-17.36-9.179-5.486-3.751-10.588-7.961-15.274-12.591-18.505-18.543-29.954-44.155-29.954-72.44s11.449-53.897 29.966-72.452c4.176-4.079 8.757-7.784 13.664-11.037-26.377-18.952-43.631-49.614-43.631-84.306 0-34.386 16.951-64.813 42.953-83.381-26.002-19.002-42.953-49.438-42.953-83.832 0-34.507 17.061-65.029 43.208-83.592-26.147-18.983-43.208-49.501-43.208-84.003 0-34.574 17.132-65.146 43.371-83.691-4.794-3.765-9.276-7.463-13.433-11.495-18.488-18.517-29.938-44.119-29.938-72.395 0-0.010 0-0.021 0-0.031-0.004-0.306-0.006-0.669-0.006-1.032 0-6.708 0.749-13.24 2.169-19.519 1.256-6.698 3.207-13.135 5.764-19.255 2.719-6.174 5.888-11.974 9.508-17.451 3.676-5.408 7.888-10.513 12.535-15.184 18.575-18.461 44.161-29.894 72.418-29.958 7.114 0.056 14.007 0.8 20.673 2.168 6.684 1.445 13.105 3.474 19.244 6.041 6.101 2.605 11.906 5.694 17.394 9.231 5.353 3.78 10.45 7.984 15.188 12.558 10.538 10.883 18.76 24.15 23.765 38.901 14.245-40.087 52.308-68.898 97.101-68.898 44.321 0 82.054 28.207 96.225 67.649 14.648-39.446 52.398-67.649 96.736-67.649s82.087 28.204 96.288 67.649c14.556-39.434 52.252-67.649 96.537-67.649 44.91 0 83.043 29.017 96.674 69.325 5.415-14.929 13.685-28.34 24.377-39.392 4.674-4.509 9.772-8.713 15.181-12.503 5.438-3.532 11.246-6.62 17.321-9.205 6.227-2.677 12.654-4.71 19.327-6.067 6.608-1.358 13.498-2.102 20.551-2.158 28.3 0.171 53.858 11.578 72.506 29.973 4.525 4.691 8.729 9.788 12.52 15.197 3.533 5.436 6.619 11.241 9.198 17.312 2.681 6.227 4.714 12.654 6.065 19.33 1.363 6.605 2.107 13.495 2.156 20.55-0.065 28.309-11.492 53.9-29.955 72.494-4.165 4.076-8.714 7.809-13.572 11.121 26.316 18.926 43.527 49.524 43.527 84.142 0 34.47-17.065 64.954-43.207 83.466 26.143 18.953 43.206 49.448 43.206 83.927s-17.064 64.974-43.207 83.499c26.146 18.987 43.207 49.508 43.207 84.013 0 0.057 0 0.113 0 0.17zM821.542 591.902v-493.309h-619.085v516.621h619.085z" />
<glyph unicode="&#xe915;" glyph-name="free-dial" d="M918.113 267.781c0.040-1.414 0.062-3.079 0.062-4.748 0-97.307-76.64-176.713-172.85-181.15-95.562 4.697-170.936 83.001-170.936 178.91 0 2.457 0.049 4.903 0.148 7.337-0.011 79.413 53.439 142.576 111.589 184.263-51.177 23.032-110.937 36.449-173.832 36.449s-122.655-13.418-176.575-37.546c60.92-40.59 114.344-103.753 114.344-183.515 0.087-2.082 0.136-4.525 0.136-6.98 0-95.914-75.379-174.222-170.128-178.916-97.711 4.317-174.947 84.246-174.947 182.213 0 1.295 0.013 2.586 0.040 3.875-0.003 79.569 57.523 142.732 115.686 184.419-52.664 23.011-114.030 36.401-178.524 36.401-0.159 0-0.317 0-0.476 0l0.025-498.401h941.087v498.401c-0.179 0-0.392 0-0.605 0-64.522 0-125.917-13.39-181.558-37.542 61.101-40.547 117.313-103.709 117.313-183.471zM512.289 546.48c1.433 0.015 3.127 0.024 4.822 0.024 83.477 0 161.965-21.36 230.297-58.913 65.836 37.531 146.89 58.834 232.919 58.834 0.927 0 1.853-0.002 2.778-0.007l-0.143 102.575h-941.087v-102.587c0.766 0.004 1.672 0.007 2.578 0.007 85.959 0 166.943-21.299 237.963-58.906 63.083 37.638 141.57 58.998 225.046 58.998 1.697 0 3.392-0.009 5.085-0.026zM632.914 265.518c-0.202-2.617-0.317-5.667-0.317-8.744 0-65.051 51.362-118.105 115.744-120.822 64.88 2.702 116.252 55.757 116.252 120.811 0 3.081-0.115 6.135-0.342 9.158 0.024 67.396-62.488 121.548-115.665 153.886-53.112-32.338-115.674-86.49-115.674-154.289zM162.649 264.069c-0.202-2.621-0.317-5.675-0.317-8.757 0-65.063 51.377-118.127 115.774-120.835 64.873 2.711 116.238 55.764 116.238 120.814 0 3.089-0.116 6.151-0.343 9.181 0.024 67.357-62.537 121.47-115.649 153.846-53.151-32.376-115.702-86.49-115.702-154.25z" />
<glyph unicode="&#xe916;" glyph-name="front-layer" d="M962.338 290.543l-128.589 58.666 128.589 58.659c12.694 5.898 21.338 18.54 21.338 33.2s-8.644 27.302-21.113 33.106l-435.25 198.52c-4.447 2.061-9.652 3.263-15.138 3.263s-10.69-1.202-15.366-3.357l-434.797-198.332c-12.694-5.898-21.338-18.54-21.338-33.2s8.644-27.302 21.113-33.106l128.812-58.753-128.588-58.665c-12.694-5.898-21.338-18.54-21.338-33.2s8.644-27.302 21.113-33.106l435.25-198.52c4.446-2.068 9.651-3.275 15.138-3.275s10.692 1.207 15.364 3.369l434.798 198.332c12.694 5.898 21.338 18.54 21.338 33.2s-8.644 27.302-21.113 33.106zM512.176 99.018l-347.125 158.325 113.461 51.763 197.189-89.953v106.291h-53.542c-14.138 0-25.599 11.462-25.599 25.6 0 7.069 2.865 13.469 7.498 18.102l90.019 90.016c4.633 4.632 11.032 7.498 18.102 7.498s13.469-2.865 18.102-7.498l90.017-90.016c4.632-4.633 7.498-11.032 7.498-18.102 0-14.138-11.461-25.6-25.599-25.6h-53.544v-106.291l197.186 89.951 113.464-51.761z" />
<glyph unicode="&#xe917;" glyph-name="gift" d="M609.664 599.305c-18.231-4.547-34.213-10.828-49.104-18.87 14.913-6.962 30.922-13.243 47.744-17.474 9.587-0.219 16.441 5.244 18.625 12.701l-0.33 0.469 0.542 0.542c0.442 1.263 0.752 2.729 0.868 4.248-0.014 10.182-8.222 18.381-18.346 18.384zM360.337 613.172c11.12 18.591 31.12 30.863 53.991 30.933 36.867-7.712 69.55-20.78 99.094-38.538 26.691 17.756 59.379 30.824 94.176 38.173 24.938 0.299 44.934-11.953 55.909-30.239l63.882 63.429c6.951 6.947 11.25 16.546 11.25 27.15 0 10.616-4.31 20.226-11.275 27.175-16.9 16.782-40.183 27.154-65.889 27.154-24.448 0-46.705-9.382-63.368-24.742-12.499 36.27-46.322 61.801-86.108 61.801-39.794 0-73.622-25.541-85.987-61.123-16.792 14.681-39.060 24.076-63.522 24.076-25.715 0-49.005-10.382-65.907-27.182-6.946-6.945-11.246-16.546-11.246-27.152s4.299-20.207 11.25-27.156zM659.74 542.954c-11.557-15.262-29.669-25.037-50.066-25.099-12.084 1.044-23.221 3.901-33.539 8.308l44.405-64.084c2.451-3.539 3.916-7.923 3.916-12.65 0-12.366-10.025-22.391-22.391-22.391-7.64 0-14.385 3.826-18.426 9.666l-71.649 104.625-71.575-104.55c-4.090-5.915-10.835-9.741-18.475-9.741-12.366 0-22.391 10.025-22.391 22.391 0 4.727 1.465 9.111 3.965 12.725l43.631 63.735c-9.604-4.135-20.736-6.991-32.396-8.006-20.816 0.037-38.925 9.818-50.361 24.929-81.874-91.938-155.222-257.13-155.222-495.696 0-39.575 8.4-94.6 81.101-115.487 44.125-12.688 107.125-12.9 210.6-12.9h22.25c103.475 0 166.5 0.212 210.625 12.9 72.7 20.888 81.101 75.912 81.101 115.487-0.004 238.553-73.343 403.739-155.102 495.838zM414.338 562.654c18.222 4.549 34.195 10.829 49.077 18.87-14.906 6.96-30.906 13.242-47.72 17.474-11.52 0.257-19.678-7.927-19.684-18.019 0.119-1.602 0.435-3.090 0.923-4.496l0.449-0.363-0.325-0.305c2.218-7.611 9.099-13.091 17.271-13.162z" />
<glyph unicode="&#xe918;" glyph-name="horizontal-center-alignment" d="M863.014 302.617h-325.238v109.614h235.638c14.138 0 25.6 11.462 25.6 25.6v160.824c-0.001 14.138-11.462 25.599-25.6 25.6h-235.638v135.212c0 14.138-11.462 25.6-25.6 25.6s-25.6-11.462-25.6-25.6v-135.212h-235.638c-14.138 0-25.6-11.462-25.6-25.6v-160.824c0-14.138 11.462-25.6 25.6-25.6h235.638v-109.614h-325.238c-14.138 0-25.6-11.462-25.6-25.6v-160.812c0-14.138 11.462-25.6 25.6-25.6h325.238v-135.214c0-14.138 11.462-25.6 25.6-25.6s25.6 11.462 25.6 25.6v135.214h325.238c14.138 0 25.6 11.462 25.6 25.6v160.812c0 14.138-11.462 25.6-25.6 25.6zM186.939 141.806v109.612h650.475v-109.612z" />
<glyph unicode="&#xe919;" glyph-name="horizontal" d="M933.187 57.393c-15.437 12.002-91.436 80.013-111.437 80.013-26.286 0-17.148-61.148-17.148-71.438v-0.099h-694.463c-20.145 0-36.475-16.33-36.475-36.475s16.33-36.475 36.475-36.475l694.462-0.1c0-10.289-9.137-71.438 17.148-71.438 20.002 0 96 68.013 111.437 80.011 9.013 6.168 14.85 16.402 14.85 28s-5.837 21.832-14.734 27.925zM243.626 440.943c-38.831-37.993-62.964-90.873-63.15-149.39-0.119-2.223-0.187-4.783-0.187-7.36 0-37.191 14.131-71.081 37.317-96.594 24.472-23.986 58.174-38.863 95.35-38.863 2.478 0 4.94 0.066 7.385 0.197 50.657 1.443 97.898 16.298 138.354 41.132 50.746 30.584 94.621 69.532 130.356 115.161 35.1 43.3 63.992 91.891 85.26 144.385 25.102-4.986 45.325-18.346 61.839-35.332 17.399-18.647 28.058-43.707 28.058-71.257 0-1.101-0.017-2.198-0.051-3.291 0.012-0.353 0.017-0.959 0.017-1.566 0-36.752-16.875-69.562-43.3-91.106-38.429-29.9-85.69-49.754-137.254-55.143-16.651-2.518-28.357-15.758-28.357-31.732 0-2.46 0.278-4.856 0.804-7.157l3.034-13.609c3.298-14.439 16.031-25.050 31.243-25.050 1.781 0 3.528 0.145 5.23 0.425 68.322 8.443 129.279 35.58 178.908 76.074 42.066 35.007 69.049 88.144 69.049 147.584 0 0.507-0.002 1.014-0.006 1.52 0.028 1.095 0.043 2.476 0.043 3.861 0 64.278-33.233 120.794-83.454 153.303-55.141 34.622-121.31 54.903-192.216 54.903-6.155 0-12.274-0.153-18.354-0.455 0.366 0.035-0.213 0.036-0.793 0.036-31.507 0-62.404-2.61-92.486-7.626l3.26 47.299h328.951c0.001 0 0.001 0 0.002 0 17.672 0 31.998 14.326 31.998 31.998 0 0.001 0 0.002 0 0.002v13.824c0 0.001 0 0.001 0 0.002 0 17.672-14.326 31.998-31.998 31.998-0.001 0-0.002 0-0.002 0h-328.95v64.75c0 0.001 0 0.001 0 0.002 0 17.672-14.326 31.998-31.998 31.998-0.001 0-0.002 0-0.002 0h-15.362c-0.001 0-0.001 0-0.002 0-17.672 0-31.998-14.326-31.998-31.998 0-0.001 0-0.002 0-0.002v-64.75h-144.637c-0.001 0-0.001 0-0.002 0-17.672 0-31.998-14.326-31.998-31.998 0-0.001 0-0.002 0-0.002v-13.824c0-0.001 0-0.001 0-0.002 0-17.672 14.326-31.998 31.998-31.998 0.001 0 0.002 0 0.002 0h144.637v-66.9c-53.535-17.598-99.309-46.251-136.54-83.452zM459.526 465.043c26.965 5.565 57.955 8.751 89.688 8.751 17.114 0 34.012-0.927 50.646-2.732-21.207-45.177-45.031-84.295-73.698-119.294-19.607-24.024-41.674-46.024-65.796-65.589zM320 226.743c-1.598-0.154-3.456-0.242-5.334-0.242-15.335 0-29.302 5.857-39.786 15.457-9.501 11.89-15.274 27.199-15.274 43.858 0 2.007 0.084 3.995 0.248 5.959 0.196 37.2 15.857 70.957 40.912 95 22.192 22.383 48.531 40.526 77.789 53.199l1.607-200.655c-17.751-7.47-38.352-12.041-59.954-12.572z" />
<glyph unicode="&#xe91a;" glyph-name="ink" d="M417.789-64.971c27.042-10.895 58.398-17.216 91.23-17.216 1.040 0 2.078 0.006 3.115 0.019 172.003-0.040 244.617 145.435 244.666 280.572-0.049 170.888-97.5 338.025-244.9 596.813-147.226-258.788-244.787-425.925-244.713-596.774 0-107.287 45.701-221.025 150.602-263.414z" />
<glyph unicode="&#xe91b;" glyph-name="japan" d="M1011.95 13.168c-5.924 8-12.436 16.65-19.438 25.974-4.244 5.642-8.781 11.686-13.389 17.838-2.302 3.077-4.728 6.349-7.112 9.554q-3.924 5.276-7.995 10.798-4.52 6.132-9.201 12.562c-2.063 2.831-4.18 5.778-6.284 8.694-3.697 5.125-7.398 10.26-11.21 15.649l-1.364 1.951c-14.638 20.741-30.060 43.42-45.847 68.086l-1.769 2.757q-7.922 12.43-15.941 25.503l-0.276 0.456c-47.806 76.384-91.384 164.494-126.024 256.97l-3.372 10.268c-18.223 47.474-36.149 106.629-50.247 167.253-5.702 26.132-20.19 38.175-37.49 38.175-0.001 0-0.001 0-0.002 0h-285.974c-0.001 0-0.002 0-0.003 0-17.301 0-31.789-12.043-35.538-28.203-16.050-70.597-33.977-129.755-55.464-187.175l3.261 9.94c-38.029-102.787-81.631-190.936-133.127-273.661l3.498 6.044q-8.029-13.121-15.969-25.549l-1.81-2.826c-15.683-24.499-31-47.030-45.551-67.658-0.553-0.781-1.128-1.618-1.679-2.396-3.786-5.35-7.462-10.452-11.133-15.544-2.115-2.926-4.242-5.891-6.316-8.732q-4.673-6.42-9.198-12.562-4.067-5.507-7.995-10.798c-2.386-3.205-4.81-6.479-7.114-9.554-4.605-6.152-9.144-12.196-13.389-17.838-6.999-9.324-13.512-17.974-19.438-25.974-4.468-5.984-7.153-13.526-7.153-21.696 0-20.146 16.331-36.478 36.477-36.48h941.251c20.146 0.001 36.478 16.333 36.478 36.48 0 8.17-2.685 15.712-7.222 21.792zM397.901 612.705h228.201c21.751-87.783 47.221-162.748 78.128-234.829-23.731 12.043-57.622 74.914-76.974 71.519-19.794-3.469-30.164-82.196-50.816-83.958-20.050-1.71-43.73 74.068-64.44 74.068-20.706 0-44.383-75.779-64.43-74.071-20.646 1.764-31.012 80.489-50.806 83.958-19.359 3.392-53.276-59.558-73.239-61.67 27.15 62.228 52.622 137.196 72.141 214.533z" />
<glyph unicode="&#xe91c;" glyph-name="kids" d="M970.514 184.842c-6.804 3.574-14.867 5.671-23.419 5.671-19.729 0-36.851-11.16-45.398-27.512-15.024-22.109-33.349-40.372-54.531-54.739-15.328 46.529-28.674 104.389-38.056 163.568-12.333 72.856-21.953 127.817-46.204 169.552 5.757 1.882 12.383 2.968 19.262 2.968 13.88 0 26.727-4.419 37.213-11.926 17.293-13.192 39.445-21.214 63.471-21.214 0.466 0 0.931 0.003 1.395 0.009-0.067-0.001-0.063-0.001-0.060-0.001 4.498 0 8.932 0.273 13.287 0.802 23.945 2.323 45.201 14.407 59.621 32.245 1.796 2.306 2.802 5.033 2.802 7.994 0 7.071-5.732 12.804-12.804 12.804-1.53 0-2.997-0.268-4.357-0.76-34.548-12.247-47.499 2.629-65.46 23.142-11.657 15.793-27.329 28.001-45.523 35.215-7.012 1.842-14.256 2.757-21.713 2.757-33.434 0-62.568-18.409-77.82-45.643-8.49 6.553-17.822 12.726-27.844 17.719-8.653-89.755-66.23-159.963-135.964-159.963-75.074 0-136.161 81.336-136.161 181.325 0.013 12.327 0.953 24.424 2.755 36.238-8.36 14.431-15.001 32.716-19.154 51.927-4.991 21.299-10.504 38.21-17.197 54.511-9.527 24.131-26.049 46.296-47.026 63.139-9.6 27.392-26.7 49.866-48.908 65.611-2.016 1.056-3.906 1.513-5.903 1.513-7.073 0-12.807-5.734-12.807-12.807 0-0.090 0.001-0.18 0.003-0.27 0.123-6.046 0.164-11.737 0.161-17.221-8.165 14.319-20.173 25.632-34.628 32.725-1.887 0.795-3.53 1.136-5.253 1.136-7.069 0-12.8-5.731-12.8-12.8 0-0.578 0.038-1.148 0.113-1.706 2.123-16.406 3.16-29.121 3.608-39.415-40.793-12.492-74.808-36.992-98.875-69.334-11.341-13.129-22.618-24.624-34.544-35.415l-14.469-12.281c-37.064-31.114-75.377-63.301-42.163-122.363 40.474-72 130.688-41.725 185.201-16.138 18.918-114.020 13.918-218.87-47.811-382.587-24.223 15.606-44.322 35.445-59.751 58.656-9.15 17.376-26.273 28.535-46.002 28.535-28.279 0-51.203-22.925-51.203-51.203 0-8.549 2.095-16.61 5.801-23.695 4.003-7.743 105.279-196.305 480.554-196.305s476.549 188.562 480.686 196.588c3.57 6.802 5.665 14.862 5.665 23.41 0 19.729-11.157 36.852-27.506 45.404zM511.951 21.706c-3.159-0.048-6.887-0.075-10.621-0.075-69.128 0-136.070 9.365-199.624 26.895 61.98 117.359 89.506 171.667 210.47 171.667 120.804 0 148.426-54.177 204.995-172.444-58.431-16.582-125.538-26.115-194.871-26.115-3.638 0-7.271 0.026-10.897 0.079zM484.339 531.857c-0.302-4.339-0.888-8.566-0.888-13.002 0-70.538 38.912-130.125 84.961-130.125 45.45 0 83.769 58.099 84.767 127.424-42.314 9.104-90.997 14.419-140.886 14.625-9.118 0.303-18.907 0.633-27.954 1.078z" />
<glyph unicode="&#xe91d;" glyph-name="ladies-tshirt" d="M805.878-80.932c10.161 0.016 18.392 8.256 18.392 18.419 0 0.125-0.001 0.25-0.004 0.375s-34.050 236.999-34.050 348.464c-0.184 6.608-0.288 14.384-0.288 22.185 0 50.011 4.297 99.018 12.542 146.673l65.335-5.089c0.002 0 0.005 0 0.008 0 9.317 0 17.019 6.914 18.254 15.891l57.9 242.369c0.103 0.73 0.161 1.573 0.161 2.43 0 8.191-5.356 15.131-12.757 17.51l-208.491 61.1c-1.804 0.636-3.885 1.004-6.052 1.004-7.495 0-13.962-4.398-16.963-10.753-26.186-76.676-97.494-130.753-181.432-130.753-2.196 0-4.383 0.037-6.561 0.11-1.545-0.073-3.732-0.11-5.928-0.11-83.937 0-155.243 54.078-180.98 129.293-3.449 7.815-9.917 12.213-17.411 12.213-2.167 0-4.247-0.368-6.183-1.044l-208.232-61.024c-7.531-2.414-12.887-9.355-12.887-17.546 0-0.857 0.059-1.7 0.172-2.526l57.879-242.177c1.247-9.073 8.949-15.987 18.265-15.987 0.003 0 0.006 0 0.008 0h66.063c7.516-42.565 11.813-91.573 11.813-141.584 0-7.801-0.105-15.577-0.312-23.328 0.024-110.322-34.026-347.34-34.026-347.34-0.002-0.106-0.003-0.231-0.003-0.356 0-10.163 8.231-18.404 18.39-18.419z" />
<glyph unicode="&#xe91e;" glyph-name="last-layer" d="M983.676 349.193c-0.008 14.658-8.648 27.296-21.113 33.106l-128.814 58.76 128.589 58.659c12.694 5.898 21.338 18.54 21.338 33.2s-8.644 27.302-21.113 33.106l-435.25 198.52c-4.447 2.061-9.652 3.263-15.138 3.263s-10.69-1.202-15.366-3.357l-434.797-198.331c-12.694-5.898-21.338-18.54-21.338-33.2s8.644-27.302 21.113-33.106l128.812-58.753-128.588-58.666c-12.694-5.898-21.338-18.54-21.338-33.2s8.644-27.302 21.113-33.106l128.809-58.744-128.584-58.65c-12.694-5.898-21.338-18.54-21.338-33.2s8.644-27.302 21.113-33.106l435.25-198.521c4.446-2.068 9.651-3.275 15.138-3.275s10.692 1.207 15.364 3.369l434.798 198.332c12.694 5.898 21.338 18.54 21.338 33.2s-8.644 27.302-21.113 33.106l-128.795 58.75 128.57 58.644c12.694 5.899 21.337 18.54 21.337 33.2zM548.651 207.504v-67.605h53.544c0 0 0 0 0.001 0 14.138 0 25.6-11.462 25.6-25.6 0-7.070-2.866-13.47-7.499-18.103l-90.018-90.014c-4.633-4.632-11.032-7.498-18.102-7.498s-13.469 2.865-18.102 7.498l-90.019 90.015c-4.633 4.633-7.499 11.033-7.499 18.103 0 14.138 11.462 25.6 25.6 25.6 0 0 0 0 0.001 0h53.542v67.606l-310.65 141.687 113.461 51.763 197.189-89.953v80.205l-310.65 141.71 347.125 158.325 347.125-158.325-310.65-141.711v-80.205l197.186 89.951 113.464-51.761z" />
<glyph unicode="&#xe91f;" glyph-name="layer" d="M983.675 340.991c0 0.003 0 0.006 0 0.009 0 14.655-8.645 27.29-21.113 33.085l-128.829 58.759 128.604 58.66c12.693 5.893 21.338 18.531 21.338 33.188s-8.644 27.295-21.113 33.094l-435.248 198.532c-4.443 2.084-9.648 3.3-15.137 3.3s-10.695-1.216-15.361-3.394l-434.802-198.345c-12.693-5.893-21.338-18.531-21.338-33.188s8.644-27.295 21.113-33.094l128.837-58.756-128.612-58.662c-12.693-5.892-21.338-18.53-21.338-33.187s8.644-27.294 21.113-33.093l128.837-58.761-128.612-58.67c-12.693-5.893-21.338-18.531-21.338-33.188s8.644-27.295 21.113-33.094l435.251-198.519c4.444-2.076 9.649-3.287 15.137-3.287s10.693 1.211 15.362 3.381l434.798 198.332c12.693 5.893 21.338 18.531 21.338 33.188s-8.644 27.295-21.113 33.094l-128.839 58.761 128.614 58.67c12.693 5.889 21.338 18.524 21.338 33.179 0 0.002 0 0.005 0 0.007zM512.177 683.031l347.123-158.339-347.123-158.323-347.126 158.323zM859.3 157.281l-347.123-158.326-347.126 158.326 113.467 51.766 218.522-99.679c4.444-2.076 9.649-3.287 15.137-3.287s10.693 1.211 15.362 3.381l218.289 99.582zM512.177 182.655l-347.126 158.336 113.472 51.758 218.516-99.668c4.444-2.077 9.649-3.29 15.137-3.29s10.693 1.212 15.362 3.383l218.297 99.58 113.464-51.763z" />
<glyph unicode="&#xe920;" glyph-name="left-alignment" d="M863.014 302.617h-676.075v109.614h496.875c14.138 0 25.6 11.462 25.6 25.6v160.824c-0.001 14.138-11.462 25.599-25.6 25.6h-496.875v135.212c0 14.138-11.462 25.6-25.6 25.6s-25.6-11.462-25.6-25.6v-804.076c0-14.138 11.462-25.6 25.6-25.6s25.6 11.462 25.6 25.6v135.214h676.075c14.138 0 25.6 11.462 25.6 25.6v160.812c0 14.138-11.462 25.6-25.6 25.6zM837.414 141.806h-650.475v109.612h650.475z" />
<glyph unicode="&#xe921;" glyph-name="line-a" d="M512-82.532c-242.498 0.014-439.076 196.6-439.076 439.1 0 242.508 196.592 439.1 439.1 439.1s439.1-196.592 439.1-439.1c0 0 0-0.001 0-0.001v-60.711c0-91.606-74.261-165.868-165.868-165.868s-165.868 74.261-165.868 165.868v60.71c-0.050 59.215-48.065 107.199-107.286 107.199-59.253 0-107.287-48.034-107.287-107.287s48.034-107.287 107.287-107.287c7.651 0 15.114 0.801 22.312 2.323 2.897 0.648 7.031 1.090 11.268 1.090 32.916 0 59.599-26.683 59.599-59.599 0-28.687-20.268-52.641-47.266-58.321-14.116-3.025-29.887-4.718-46.054-4.718-125.134 0-226.576 101.441-226.576 226.576s101.441 226.576 226.576 226.576c125.126 0 226.562-101.428 226.576-226.551v-60.712c0-25.789 20.906-46.694 46.694-46.694s46.694 20.906 46.694 46.694v60.71c-0.166 176.402-143.206 319.34-319.631 319.34-176.528 0-319.632-143.104-319.632-319.632s143.104-319.632 319.632-319.632c44.080 0 86.076 8.923 124.28 25.061 4.647 2.089 12.495 3.761 20.733 3.761 32.908 0 59.586-26.678 59.586-59.586 0-24.68-15.005-45.856-36.39-54.902-49.909-21.245-107.514-33.509-167.983-33.509-0.135 0-0.269 0-0.404 0z" />
<glyph unicode="&#xe922;" glyph-name="lock" d="M786.311 393.574h-18.286v109.724c0 141.399-114.627 256.026-256.026 256.026s-256.026-114.627-256.026-256.026v-109.724h-18.286c-30.297-0.008-54.855-24.567-54.863-54.863v-329.176c0.010-30.296 24.567-54.853 54.863-54.861h548.624c30.296 0.008 54.854 24.565 54.863 54.86v329.176c-0.008 30.297-24.567 54.855-54.863 54.863zM581.76 54.62h-139.167l44.974 104.54c-26.51 10.227-44.975 35.501-44.975 65.087 0 38.43 31.154 69.584 69.584 69.584s69.584-31.154 69.584-69.584c0-29.586-18.465-54.86-44.499-64.925zM658.299 393.574h-292.598v109.724c0 80.799 65.5 146.299 146.299 146.299s146.299-65.5 146.299-146.299z" />
<glyph unicode="&#xe923;" glyph-name="logo-heart" d="M858.488 775.792c-164.951 66.701-291.351-40.975-346.601-169.787-43.612 101.624-131.223 190.175-247.611 190.175-35.746-0.378-69.65-7.838-100.513-21.039-166.5-67.299-180.076-238.122-126.674-370.198 67.561-167.076 228.7-291.85 474.988-486.612 246.149 194.762 407.363 319.537 474.824 486.612 53.437 132.076 39.826 302.899-128.412 370.849zM426.988 128.806c-145.761 118.812-243.912 212.401-286.487 317.924-12.228 27.172-19.352 58.902-19.352 92.296 0 16.698 1.781 32.98 5.164 48.666 10.635 39.423 41.024 71.456 80.105 84.463 17.656 7.592 37.18 12.050 57.694 12.485 71.115 0.003 124.151-69.061 148.115-128.31 42.611-105.364 37.087-240.776 14.761-427.525z" />
<glyph unicode="&#xe924;" glyph-name="long-tshirt" d="M1014.863 547.668l0.049 0.038-194.248 191.273c-2.124 2.094-4.737 3.698-7.651 4.627l-132.624 41.136c-1.684 0.533-3.621 0.839-5.63 0.839-7.807 0-14.531-4.636-17.571-11.304-26.638-50.389-78.596-84.057-138.417-84.057-2.381 0-4.75 0.053-7.106 0.159-1.688-0.106-4.059-0.159-6.443-0.159-59.786 0-111.717 33.628-137.911 83.001-3.433 7.695-10.165 12.389-17.994 12.389-2.036 0-3.998-0.318-5.84-0.906l-132.365-41.061c-3.050-0.966-5.663-2.57-7.79-4.667l-194.184-191.309c-4.045-4.099-6.658-9.62-7.024-15.745l0.624-198.793c0.009-4.049 1.275-7.8 3.428-10.886l128.422-186.526c3.51-5.048 9.28-8.311 15.813-8.311 4.102 0 7.903 1.286 11.023 3.477l56.374 39.222-9.124-235.377c-0.009-0.22-0.014-0.478-0.014-0.737 0-10.604 8.596-19.2 19.2-19.2 0 0 0.001 0 0.001 0h568.274c0.001 0 0.003 0 0.004 0 10.604 0 19.2 8.596 19.2 19.2 0 0.259-0.005 0.517-0.015 0.774l-9.125 235.34 56.438-39.263c3.076-2.143 6.893-3.425 11.008-3.425 1.199 0 2.372 0.109 3.511 0.317 5.045 0.942 9.394 3.859 12.215 7.919l128.505 186.651c2.109 3.025 3.375 6.775 3.387 10.821l0.576 200.241c-0.777 5.614-3.294 10.533-6.981 14.305zM229.099 461.48l-6.6-170.076-57.5 102.3zM859 393.704l-57.5-102.3-6.6 170.076z" />
<glyph unicode="&#xe925;" glyph-name="marine" d="M982.251 308.418c-0.105 20.072-16.4 36.302-36.486 36.302-6.198 0-12.036-1.546-17.148-4.272l-141.692-74.454c-11.692-6.238-19.514-18.356-19.514-32.301 0-13.209 7.018-24.778 17.528-31.183l37.112-22.294c-38.72-45.45-115.802-104.927-258.675-116.644v311.895h96.387c28.277 0 51.2 22.923 51.2 51.2s-22.923 51.2-51.2 51.2h-96.387v60.424c48.6 20.647 82.062 67.977 82.062 123.122 0 73.672-59.723 133.394-133.394 133.394s-133.394-59.723-133.394-133.394c0-55.246 33.585-102.648 81.452-122.903l0.875-60.642h-96.389c-28.277 0-51.2-22.923-51.2-51.2s22.923-51.2 51.2-51.2h96.389v-311.936c-144.141 11.633-221.069 71.398-259.515 116.992l36.439 21.896c10.671 6.496 17.689 18.066 17.689 31.274 0 13.945-7.822 26.063-19.318 32.205l-142.097 74.645c-4.915 2.631-10.752 4.176-16.95 4.176-20.086 0-36.382-16.23-36.488-36.291l-0.773-160.287c0-0.047 0-0.103 0-0.159 0-20.153 16.337-36.49 36.49-36.49 6.933 0 13.414 1.933 18.934 5.291l36.388 21.871c77.045-132.559 218.39-220.262 380.219-220.262 161.648 0 302.858 87.508 378.841 217.735l36.929-19.435c5.361-3.272 11.847-5.21 18.786-5.21 20.145 0 36.475 16.33 36.475 36.475 0 0.065 0 0.13-0.001 0.194zM512 692.254c0.002 0 0.003 0 0.005 0 17.096 0 30.956-13.859 30.956-30.956s-13.859-30.956-30.956-30.956c-17.094 0-30.953 13.856-30.956 30.95 0.017 17.089 13.863 30.938 30.948 30.961z" />
<glyph unicode="&#xe926;" glyph-name="music" d="M924.935 461.365c-2.783 30.8-9.174 59.186-18.801 86.030-19.424 54.343-51.15 102.651-91.836 141.694-10.277 9.749-21.121 19.017-32.43 27.709-11.36 8.517-23.281 16.489-35.625 23.825-12.602 7.539-25.415 14.198-38.659 20.063-15.535 7.066-29.344 11.753-43.142 16.637-13.99 4.006-27.994 8.338-42.276 11.072-14.203 3.487-28.593 5.092-42.975 7.414-0.771 0.12-1.646 0.236-2.432 0.31-0.813 0.057-1.761 0.090-2.717 0.090-20.029 0-36.704-14.361-40.289-33.348l-48.452-560.844c-44.494 30.030-99.323 47.936-158.334 47.936-2.252 0-4.498-0.026-6.737-0.078-125.98 0.006-224.917-72.683-224.917-165.495 0-92.787 98.936-165.463 225.25-165.463 186.66 0 222.704 101.489 227.535 162.281l0.015 0.059 42.545 492.646c7.099-0.307 14.654-1.157 22.085-1.953 19.48-2.839 36.936-7.354 53.591-13.519 34.101-12.816 64.903-32.18 90.93-56.577 27.089-25.154 50.081-54.528 67.967-87.102 9.163-16.519 16.89-33.774 23.082-51.744 6.505-18.38 10.209-36.978 10.95-56.335l0.008-0.374c-0.012-0.206-0.018-0.447-0.018-0.69 0-4.101 1.907-7.757 4.882-10.129 2.18-1.719 4.932-2.745 7.925-2.745 4.082 0 7.719 1.91 10.064 4.884 8.82 10.792 16.549 22.994 22.717 36.077 6.068 12.791 10.872 26.489 14.164 40.765 4.532 19.763 6.978 40.892 6.978 62.591 0 8.559-0.381 17.029-1.126 25.395z" />
<glyph unicode="&#xe927;" glyph-name="outline" d="M905.195 62.31l-255.281 665.951c-15.837 39.993-54.095 67.801-98.872 67.991h-71.243c-0.121 0.001-0.265 0.001-0.408 0.001-44.429 0-82.433-27.513-97.902-66.43l-262.004-666.66c-4.647-11.483-7.343-24.801-7.343-38.748 0-58.491 47.416-105.907 105.907-105.907 0.001 0 0.002 0 0.004 0h64.74c45.054 0.151 83.501 28.276 98.891 67.908l53.043 141.124h156.129l51.292-139.638c15.39-40.789 54.059-69.293 99.398-69.394h64.752c0.004 0 0.008 0 0.012 0 58.487 0 105.901 47.413 105.901 105.901 0 13.629-2.574 26.656-7.263 38.622zM833.451 5.739c-6.027-8.667-15.936-14.27-27.153-14.272h-64.74c-0.004 0-0.009 0-0.013 0-14.115 0-26.155 8.882-30.837 21.361l-68.923 187.67h-257.569l-70.577-187.681c-4.83-12.582-16.813-21.35-30.844-21.35-0.001 0-0.001 0-0.002 0h-64.74c-0.001 0-0.001 0-0.002 0-18.196 0-32.947 14.751-32.947 32.947 0 4.34 0.839 8.484 2.364 12.279l261.669 665.711c4.948 12.335 16.806 20.887 30.661 20.887 0.001 0 0.002 0 0.003 0h71.219c0 0 0.001 0 0.001 0 13.954 0 25.883-8.673 30.69-20.922l255.353-666.159c1.382-3.501 2.183-7.557 2.183-11.799 0-6.979-2.168-13.452-5.867-18.781zM430.131 320.043h165.914l-82.944 222.387-82.97-222.387z" />
<glyph unicode="&#xe928;" glyph-name="paint" d="M876.444 412.956l-0.415-0.73c-1.259 2.372-2.642 4.417-4.212 6.299l-367.080 367.067c-6.715 6.352-15.801 10.257-25.8 10.257s-19.085-3.905-25.817-10.273l-86.557-86.56c-217.613-0.914-361.664-21.883-361.664-116.147 0-43.118 31.424-75.809 149.629-95.892l-138.665-138.67c-6.598-6.605-10.679-15.726-10.679-25.8s4.081-19.195 10.679-25.8l367.111-367.114c6.606-6.596 15.726-10.675 25.8-10.675s19.194 4.079 25.8 10.676l389.219 389.209c-39.514-73.467-63.767-131.246-63.739-189.676 0-51.026 21.734-105.121 71.626-125.284 12.862-5.182 27.776-8.187 43.392-8.187 0.494 0 0.988 0.003 1.48 0.009 81.804-0.019 116.341 69.17 116.364 133.444-0.023 81.275-46.372 160.765-116.475 283.848zM79.037 585.218c5.627 7.841 37.599 32.927 213.117 39.386l-72.991-72.993c-100.239 11.005-130.885 25.521-140.127 33.608zM586.775 536.98c-114.442 0-203.264 2.66-272.259 6.799l164.421 164.426 315.425-315.651-632.515-1.449 84.431 84.431c83.581-7.547 194.26-11.507 340.495-11.507 20.145 0 36.475 16.33 36.475 36.475s-16.33 36.475-36.475 36.475z" />
<glyph unicode="&#xe929;" glyph-name="parka" d="M1014.187 551.080l0.064 0.061c-55.231 63.573-112.186 121.422-172.532 175.568-31.495-50.57-118.479-86.421-208.698-103.862 1.442-25.124 2.263-54.514 2.263-84.097 0-35.569-1.188-70.861-3.525-105.839-1.27-8.056-12.051-17.888-25.132-17.906-0.032 0-0.067 0-0.102 0-1.018 0-2.020 0.063-3.005 0.186-12.691 1.512-22.529 12.308-22.529 25.403 0 1.043 0.062 2.072 0.184 3.082 1.873 28.003 2.947 60.846 2.947 93.94 0 27.216-0.727 54.263-2.161 81.122-20.758-6.412-45.096-8.006-69.78-8.145-25.043 0.14-49.378 1.733-73.288 4.698 1.714-23.412 0.984-50.454 0.984-77.667 0-33.092 1.080-65.931 3.206-98.485-0.122 3.541-0.060 2.512-0.060 1.468 0-13.094-9.831-23.891-22.514-25.414-0.992-0.123-1.999-0.186-3.020-0.186-0.036 0-0.072 0-0.108 0-13.073 0.016-23.852 9.842-25.37 22.514-2.105 30.361-3.299 65.656-3.299 101.23 0 29.582 0.825 58.971 2.453 88.146-90.408 13.393-177.397 49.243-207.064 101.429-62.164-55.757-119.118-113.608-172.326-174.803l-1.977-2.429c-3.531-3.953-5.796-9.103-6.121-14.773l0.622-198.79c0.010-3.378 0.894-6.548 2.438-9.297 3.263-5.915 81.161-147.39 88.537-159.566 7.963-11.096 20.826-18.238 35.357-18.238 1.164 0 2.317 0.046 3.458 0.136l7.36-8.972c3.549-4.204 8.823-6.855 14.715-6.855 4.1 0 7.9 1.284 11.021 3.471l34.626 24.084c-3.599-61.376-7.073-121.513-9.787-170.376-0.104-1.069-0.164-2.311-0.164-3.568 0-12.734 6.119-24.039 15.577-31.135l-0.501-15.522c-0.009-0.22-0.014-0.478-0.014-0.737 0-10.604 8.596-19.2 19.2-19.2 0.001 0 0.001 0 0.002 0h571.75c0 0 0.001 0 0.001 0 10.604 0 19.2 8.596 19.2 19.2 0 0.259-0.005 0.517-0.015 0.774l-0.598 15.413c9.559 7.17 15.677 18.476 15.677 31.211 0 1.255-0.059 2.496-0.176 3.721-2.702 48.706-6.176 108.843-9.777 170.219l34.688-24.125c3.059-2.147 6.859-3.432 10.96-3.432 5.893 0 11.166 2.652 14.691 6.828l7.537 8.991c0.991-0.081 2.145-0.127 3.31-0.127 14.523 0 27.379 7.138 35.252 18.096 7.474 12.318 85.375 153.794 88.688 159.804 1.493 2.653 2.377 5.822 2.388 9.197l0.573 199.952c-0.619 5.275-2.82 9.946-6.109 13.625zM213.337 356.206l-29.125 56.113 34.363 30.725c-1.375-22.799-3.187-52.687-5.238-86.838zM810.662 356.206c-2.048 34.15-3.86 64.038-5.238 86.838l34.363-30.725zM798.264 760.995c-1.046 13.58-7.697 25.426-17.616 33.353-17.469 16.772-35.671 21.922-50.524 12.742-8.164 13.791-19.395 24.971-32.803 32.841-8.802 4.846-18.778 7.56-29.388 7.56-20.437 0-38.522-10.068-49.566-25.515-30.415-43.19-106.363-160.184-106.363-160.184 141.256 0 274.322 54.164 286.259 99.203zM512 661.793s-75.948 116.995-106.238 160c-11.17 15.631-29.255 25.699-49.692 25.699-10.61 0-20.586-2.714-29.273-7.485-13.523-7.946-24.753-19.126-32.685-32.493-15.088 8.756-33.29 3.606-50.662-13.093-10.023-8.005-16.676-19.865-17.698-33.3 11.984-45.187 145.022-99.328 286.247-99.328z" />
<glyph unicode="&#xe92a;" glyph-name="pc" d="M1018.88 759.467c0 20.48-15.36 35.84-35.84 35.84h-942.080c-10.24 0-17.92-2.56-25.6-10.24s-10.24-15.36-10.24-25.6v-634.88c0-20.48 15.36-35.84 35.84-35.84h345.6c-5.12-56.32-35.84-61.44-240.64-61.44-20.48 0-35.84-15.36-35.84-35.84v-35.84c0-20.48 15.36-35.84 35.84-35.84h729.6c20.48 0 35.84 15.36 35.84 35.84v35.84c0 20.48-15.36 35.84-35.84 35.84-204.8 0-235.52 5.12-240.64 61.44h345.6c10.24 0 17.92 2.56 25.6 10.24s10.24 15.36 10.24 25.6l2.56 634.88zM919.040 188.587h-814.080v506.88h814.080v-506.88z" />
<glyph unicode="&#xe92b;" glyph-name="plant" d="M972.651 497.469c-25.136 75.365-95.046 128.735-177.421 128.735-20.529 0-40.284-3.315-58.759-9.438-15.66-5.355-29.865-11.416-43.515-18.408 3.982 14.741 5.276 30.86 5.418 47.255 0.001 103.086-83.442 186.529-186.373 186.529s-186.374-83.443-186.374-186.374c0.161-16.515 1.522-32.577 3.999-48.267-12.012 7.868-26.281 13.884-41.002 18.926-19.562 6.467-39.311 9.784-59.836 9.784-102.939 0-186.387-83.448-186.387-186.387 0-82.285 53.321-152.116 127.296-176.825 13.809-4.508 29.076-8.252 44.721-10.884-8.657-11.094-18.577-22.696-27.698-34.928-22.848-31.208-36.173-69.229-36.173-110.362 0-102.933 83.444-186.377 186.377-186.377 61.719 0 116.432 30 150.35 76.214 8.547 11.828 16.626 24.764 23.83 38.239 8.996-13.468 17.074-26.399 25.952-38.717 33.584-45.778 88.328-75.818 150.088-75.818 102.931 0 186.373 83.442 186.373 186.373 0 41.171-13.35 79.224-35.957 110.066-9.353 12.516-19.288 24.042-29.969 34.827 17.726 3.039 32.996 6.862 47.823 11.667 72.951 24.367 126.351 94.245 126.351 176.594 0 20.581-3.335 40.382-9.495 58.894z" />
<glyph unicode="&#xe92c;" glyph-name="poloshirt" d="M402.918 682.186l67.955 67.955c0.674 0.675 1.091 1.607 1.091 2.636 0 1.166-0.535 2.207-1.374 2.891l-83.332 67.495c-0.635 0.518-1.455 0.832-2.349 0.832-0.948 0-1.813-0.353-2.471-0.935l-43.675-38.53c-0.81-0.708-1.319-1.743-1.319-2.896 0-0.36 0.050-0.709 0.142-1.040 12.519-38.661 33.178-71.738 60.085-98.551 0.67-0.631 1.565-1.015 2.55-1.015 1.060 0 2.017 0.445 2.693 1.157zM621.082 682.186l-67.955 67.955c-0.674 0.675-1.091 1.607-1.091 2.636 0 1.166 0.535 2.207 1.374 2.891l83.332 67.495c0.635 0.518 1.455 0.832 2.349 0.832 0.948 0 1.813-0.353 2.471-0.935l43.675-38.53c0.81-0.708 1.318-1.743 1.318-2.897 0-0.36-0.050-0.709-0.142-1.040-12.519-38.661-33.178-71.738-60.085-98.551-0.67-0.631-1.565-1.015-2.55-1.015-1.060 0-2.017 0.444-2.693 1.157zM956.841 698.329l-220.987 69.307c-17.76-59.261-53.266-108.674-100.269-143.429-4.541-2.874-9.141-4.265-14.067-4.265-7.071 0-13.473 2.866-18.106 7.501l-91.412 91.423-91.413-91.423c-4.633-4.634-11.034-7.501-18.105-7.501-4.925 0-9.525 1.391-13.429 3.801-47.608 35.196-83.098 84.569-100.366 141.841l-221.149-67.255c-7.531-2.414-12.887-9.355-12.887-17.546 0-0.857 0.059-1.7 0.172-2.526l32.279-242.177c1.247-9.073 8.949-15.987 18.265-15.987 0.003 0 0.006 0 0.008 0h91.663l-9.964-486.651c-0.002-0.106-0.003-0.231-0.003-0.356 0-10.163 8.231-18.404 18.39-18.419h613.454c10.161 0.016 18.392 8.256 18.392 18.419 0 0.125-0.001 0.25-0.004 0.375l-9.963 486.632h91.663c0.002 0 0.005 0 0.008 0 9.317 0 17.019 6.914 18.254 15.891l32.3 242.369c0.103 0.73 0.161 1.573 0.161 2.43 0 8.191-5.356 15.131-12.757 17.51zM512.002 463.928c-0.001 0-0.001 0-0.002 0-17.673 0-32 14.327-32 32s14.327 32 32 32c17.666 0 31.988-14.315 32-31.978-0.012-17.673-14.328-31.997-31.995-32.022zM512.002 584.993c-0.001 0-0.001 0-0.002 0-17.673 0-32 14.327-32 32s14.327 32 32 32c17.665 0 31.987-14.314 32-31.976-0.011-17.674-14.327-31.999-31.995-32.024z" />
<glyph unicode="&#xe92d;" glyph-name="present" d="M947.2 604.019h-128.399c3.509 4.653 6.905 9.917 9.912 15.424 8.506 16.237 13.299 34.674 13.299 54.23 0 19.682-4.855 38.23-13.432 54.512-7.042 14.495-16.688 27.358-28.338 38.077l-0.154 0.143c-22.688 18.697-52.048 30.036-84.057 30.036-24.012 0-46.534-6.381-65.962-17.539-52.782-25.691-90.165-72.743-137.892-141.482-47.728 68.739-85.11 115.789-138.526 141.811-18.787 10.83-41.317 17.218-65.339 17.218-32.007 0-61.365-11.342-84.274-30.225l0.163 0.12c-11.743-10.803-21.39-23.671-28.404-38.059-8.601-16.394-13.456-34.939-13.456-54.619 0-19.554 4.793-37.988 13.268-54.193 3.038-5.538 6.434-10.802 10.182-15.787l-128.989 0.332c-0.002 0-0.004 0-0.007 0-20.141 0-36.468-16.327-36.468-36.468 0-0.002 0-0.005 0-0.007v-104.251c0.036-18.863 14.435-34.352 32.841-36.113l0.147-471.789c0-0.002 0-0.004 0-0.007 0-20.141 16.327-36.468 36.468-36.468 0.002 0 0.005 0 0.007 0h804.426c0.002 0 0.004 0 0.007 0 20.141 0 36.468 16.327 36.468 36.468 0 0.002 0 0.005 0 0.007v471.777c18.552 1.773 32.951 17.261 32.985 36.12v104.254c0 0.002 0 0.004 0 0.007 0 20.141-16.327 36.468-36.468 36.468-0.002 0-0.005 0-0.007 0zM682.675 713.656c9.457 5.781 20.901 9.203 33.145 9.203 13.184 0 25.441-3.969 35.641-10.777 4.714-4.525 8.782-10.067 11.734-16.245 3.757-6.594 5.888-14.104 5.888-22.112 0-7.35-1.796-14.281-4.973-20.377-8.344-14.174-20.753-25.481-35.627-32.364-36.295-17.668-83.671-18.83-149.644-15.456 37.975 54.039 68.037 90.688 103.836 108.127zM261.012 695.493c3.093 6.516 7.161 12.063 12.087 16.712 9.991 6.685 22.246 10.652 35.428 10.652 12.25 0 23.7-3.427 33.443-9.375 35.504-17.266 65.568-53.915 103.543-107.954-65.902-3.336-113.326-2.225-149.138 15.25-15.376 7.085-27.789 18.393-36.045 32.438-3.267 6.227-5.064 13.156-5.064 20.505 0 8.005 2.132 15.512 5.859 21.984zM877.35 224.993h-328.876v-233.526h-72.95v233.526h-328.876v72.95h328.876v233.526h72.95v-233.526h328.876z" />
<glyph unicode="&#xe92e;" glyph-name="print-area-apron-front" d="M946.188 226.043c-13.729-0.502-24.667-11.753-24.667-25.558 0-0.331 0.006-0.661 0.019-0.989 0.689-2.936 1.084-6.362 1.084-9.88 0-25.361-20.559-45.921-45.921-45.921-9.735 0-18.763 3.029-26.192 8.197-13.764 7.419-23.057 21.898-23.057 38.548 0 0.291 0.003 0.582 0.009 0.872-0.001 20.181 13.649 32.407 35.924 50.707 28.772 17.738 48.412 47.901 51.447 82.82 0.028 51.798-47.347 80.313-92.709 89.363l-0.013 7.867c0 0.025 0 0.054 0 0.083 0 1.737-0.145 3.439-0.425 5.096-2.298 15.325-11.45 28.307-24.214 35.794-71.605 41.197-121.058 113.432-130.11 197.76-3.996 25.294-24.693 43.518-49.646 43.518-0.063 0-0.125 0-0.188 0h-0.167c0.528 55.562-10.469 117.76-43.748 154.5-15.034 17.271-37.056 28.125-61.613 28.125s-46.578-10.854-61.529-28.027c-33.364-36.819-44.36-99.031-43.832-154.598h-0.177c-0.041 0-0.089 0-0.138 0-24.968 0-45.682-18.217-49.573-42.085-9.16-85.759-58.601-157.999-128.708-198.398-14.27-8.272-23.432-21.257-25.721-36.492-0.289-1.753-0.434-3.456-0.434-5.193 0-0.029 0-0.058 0-0.087l-0.013-7.863c-45.363-9.050-92.738-37.566-92.738-88.958 3.063-35.324 22.703-65.488 51.009-82.958 22.741-18.567 36.39-30.792 36.39-51.017 0.005-0.246 0.008-0.537 0.008-0.828 0-16.65-9.294-31.129-22.976-38.532-7.72-4.577-16.744-7.215-26.385-7.215-9.032 0-17.524 2.315-24.914 6.385-12.282 9.502-20.291 24.511-20.291 41.39 0 2.496 0.175 4.951 0.514 7.353-0.017 0.055-0.008 0.445-0.008 0.836 0 14.134-11.458 25.592-25.592 25.592-13.874 0-25.17-11.041-25.58-24.816-0.411-3.415-0.645-7.326-0.645-11.291 0-34.616 17.834-65.066 44.815-82.665 14.564-8.856 31.713-13.96 50.055-13.96 0.272 0 0.544 0.001 0.816 0.003 19.092 0.019 37.041 5.070 52.56 13.901 0.523 0.313 1.431 1.032 2.45 1.649l-0.227-135.176c0.034-27.808 22.567-50.341 50.372-50.375h520.977c27.823 0.040 50.364 22.598 50.375 50.424l-0.227 135.126c1.019-0.617 1.928-1.336 2.977-1.925 14.992-8.555 32.942-13.606 52.069-13.625 0.236-0.002 0.508-0.003 0.78-0.003 18.342 0 35.492 5.104 50.106 13.97 26.93 17.588 44.764 48.039 44.764 82.654 0 3.965-0.234 7.876-0.689 11.719-0.543 13.278-11.827 24.197-25.661 24.197-0.279 0-0.557-0.004-0.834-0.013zM488.338 824.443c5.456 7.213 14.020 11.825 23.662 11.825s18.207-4.612 23.609-11.751c19.651-21.688 31.060-68.71 30.585-120.199h-108.386c-0.475 51.488 10.933 98.511 30.53 120.125zM193.113 281.568c-20.925 17.2-32.775 27.699-32.775 43.675 0 16.853 19.611 29.437 41.448 35.959l-0.145-86.719c-2.881 2.433-5.75 4.803-8.528 7.085zM265.163-12.482l0.7 424.35c81.118 48.77 137.981 130.801 151.872 226.744l188.328 1.706c14.1-97.647 70.961-179.675 150.646-227.652l2.129-425.148zM822.36 274.483l-0.145 86.719c21.837-6.522 41.448-19.106 41.448-35.959 0-15.974-11.85-26.475-32.775-43.675-2.779-2.281-5.646-4.652-8.528-7.084zM445.213 592.293h133.575c7.069 0 12.8-5.731 12.8-12.8v-133.575c0-7.069-5.731-12.8-12.8-12.8h-133.575c-7.069 0-12.8 5.731-12.8 12.8v133.575c0 7.069 5.731 12.8 12.8 12.8z" />
<glyph unicode="&#xe92f;" glyph-name="print-area-baby-back" d="M883.863 755.968h-0.026l-224.512 69.325c-5.041 1.172-10.83 1.844-16.776 1.844-7.227 0-14.221-0.993-20.855-2.849-31.557-5.522-68.517-8.753-106.232-8.753-1.147 0-2.294 0.003-3.439 0.009-0.801-0.006-1.957-0.009-3.115-0.009-37.812 0-74.874 3.213-110.927 9.381-2.244 1.144-9.263 2.116-16.508 2.116-5.763 0-11.382-0.615-16.795-1.783l-224.191-69.282c-20.793-6.547-35.609-25.655-35.609-48.222 0-2.363 0.162-4.689 0.477-6.965l26.233-197.486c3.309-24.224 23.413-42.827 48.043-43.773l30.182-1.153c1.763-45.7 4.075-122.35 4.075-208.75 0-145.375 12.7-279.525 12.8-280.45 2.405-25.766 23.921-45.775 50.112-45.775 0.066 0 0.132 0 0.198 0h185.302c0.003 0 0.006 0 0.010 0 25.163 0 46.027 18.405 49.865 42.487 3.937-24.078 24.8-42.474 49.961-42.487h185.239c0.077 0 0.167-0.001 0.258-0.001 26.067 0 47.497 19.856 49.988 45.269 0.154 1.432 12.829 135.357 12.829 280.957 0 86.575 2.338 163.125 4.112 208.75l30.075 1.15c24.748 0.959 44.864 19.595 48.121 43.589l26.279 197.986c0.28 1.998 0.44 4.306 0.44 6.651 0 22.57-14.819 41.679-35.258 48.128zM830.838 523.043l-48.238-1.875c-16.617-0.665-29.936-13.905-30.722-30.428-1.641-35.622-5.428-130.273-5.428-241.122 0-117-8.375-226.425-11.412-262.225h-159.813c0.001 0.193 0.001 0.42 0.001 0.648 0 33.37-10.897 64.194-29.327 89.109-8.318 8.526-20.344 14.114-33.676 14.242h-0.049c-13.375-0.136-25.415-5.742-34.010-14.684-18.11-24.445-28.98-55.175-28.98-88.444 0-0.306 0.001-0.612 0.003-0.918l-159.862 0.047c-3.025 35.625-11.438 145.175-11.438 262.225 0 110.575-3.75 205.375-5.362 241.024-0.77 16.609-14.097 29.866-30.664 30.523l-48.336 1.878-23.25 175.125 209.775 64.775c2.95-0.325 6.875-1.024 11.85-1.8 35.017-6.115 75.341-9.61 116.48-9.61 1.343 0 2.685 0.004 4.026 0.011 0.855-0.007 2.109-0.010 3.365-0.010 41.145 0 81.47 3.514 120.69 10.258 0.776 0.203 4.676 0.903 7.638 1.228l209.988-64.85zM357.851 625.518h308.65c7.069 0 12.8-5.731 12.8-12.8v-367.5c0-7.069-5.731-12.8-12.8-12.8h-308.65c-7.069 0-12.8 5.731-12.8 12.8v367.5c0 7.069 5.731 12.8 12.8 12.8z" />
<glyph unicode="&#xe930;" glyph-name="print-area-baby-front" d="M883.863 755.968h-0.026l-224.512 69.325c-4.626 1.544-9.953 2.436-15.488 2.436-20.427 0-38.019-12.138-45.958-29.594-0.891-1.891-19.616-39.266-85.679-39.266-65.975 0-84.75 37.25-85.125 37.925-7.944 18.301-25.858 30.868-46.708 30.868-5.415 0-10.633-0.848-15.527-2.418l-224.353-69.276c-20.793-6.548-35.609-25.655-35.609-48.222 0-2.363 0.162-4.689 0.477-6.965l26.233-197.486c3.309-24.224 23.413-42.827 48.043-43.773l30.182-1.153c1.763-45.7 4.075-122.35 4.075-208.75 0-145.375 12.7-279.525 12.8-280.45 2.405-25.766 23.921-45.775 50.112-45.775 0.066 0 0.132 0 0.198 0h185.302c0.003 0 0.006 0 0.010 0 25.163 0 46.027 18.405 49.865 42.487 3.937-24.078 24.8-42.474 49.961-42.487h185.239c0.077 0 0.167-0.001 0.258-0.001 26.067 0 47.497 19.856 49.988 45.269 0.154 1.432 12.829 135.357 12.829 280.957 0 86.575 2.338 163.125 4.112 208.75l30.075 1.15c24.748 0.959 44.864 19.595 48.121 43.589l26.279 197.986c0.28 1.998 0.44 4.306 0.44 6.651 0 22.57-14.819 41.679-35.258 48.128zM830.838 523.043l-48.238-1.875c-16.617-0.665-29.936-13.905-30.722-30.428-1.641-35.622-5.428-130.273-5.428-241.122 0-117-8.375-226.425-11.412-262.225h-159.813c0.001 0.193 0.001 0.42 0.001 0.648 0 33.37-10.897 64.194-29.327 89.109-8.318 8.526-20.344 14.114-33.676 14.242h-0.049c-13.375-0.136-25.415-5.742-34.010-14.684-18.11-24.445-28.98-55.175-28.98-88.444 0-0.306 0.001-0.612 0.003-0.918l-159.862 0.047c-3.025 35.625-11.438 145.175-11.438 262.225 0 110.575-3.75 205.375-5.362 241.024-0.77 16.609-14.097 29.866-30.664 30.523l-48.336 1.878-23.25 175.125 203.612 62.875c28.849-40.436 75.601-66.486 128.437-66.486 3.475 0 6.923 0.113 10.341 0.335 2.956-0.295 6.944-0.45 10.967-0.45 52.366 0 98.621 26.17 126.398 66.145l204.057-62.419zM699.956 726.934c16.406-4.659 25.929-21.735 21.27-38.141s-21.735-25.929-38.141-21.27c-16.406 4.659-25.929 21.735-21.27 38.141s21.735 25.929 38.141 21.27zM791.542 699.823c16.406-4.659 25.928-21.734 21.27-38.14s-21.734-25.928-38.14-21.27c-16.406 4.659-25.928 21.734-21.27 38.14s21.734 25.928 38.14 21.27zM357.851 586.393h308.65c7.069 0 12.8-5.731 12.8-12.8v-367.475c0-7.069-5.731-12.8-12.8-12.8h-308.65c-7.069 0-12.8 5.731-12.8 12.8v367.475c0 7.069 5.731 12.8 12.8 12.8z" />
<glyph unicode="&#xe931;" glyph-name="print-area-bag-back" d="M842.313 549.368h-105.15v173.575c0 0.022 0 0.049 0 0.076 0 16.142-7.151 30.613-18.459 40.418l-41.892 46.506c-10.005 10.89-24.305 17.698-40.195 17.725h-249.205c-16.021-0.051-30.417-6.966-40.41-17.955l-40.315-44.745c-12.16-10.048-19.85-25.131-19.85-42.010 0-0.005 0-0.010 0-0.016v-173.574h-105.175c-30.035-0.044-54.37-24.388-54.4-54.423v-412.828c0.079-13.603 5.070-26.026 13.287-35.599l89.988-104.4c10.020-11.499 24.689-18.725 41.047-18.725 0.010 0 0.020 0 0.030 0h475.849c15.937 0.045 30.27 6.878 40.264 17.76l95.036 104.539c8.669 9.575 13.975 22.337 13.975 36.337 0 0.031 0 0.061 0 0.092v412.821c-0.042 30.041-24.384 54.383-54.421 54.426zM350.838 718.468c0.5 0.475 0.95 0.975 1.425 1.475l39.4 43.725h240.675l40.825-45.299v-169.001h-56.85v131.625c0 0.001 0 0.001 0 0.002 0 17.672-14.326 31.998-31.998 31.998-0.001 0-0.002 0-0.002 0h-144.625c-0.001 0-0.001 0-0.002 0-17.672 0-31.998-14.326-31.998-31.998 0-0.001 0-0.002 0-0.002v-131.625h-56.85zM471.688 549.368v99.625h80.625v-99.625zM832.738 85.818l-89.475-98.425h-467.251l-84.749 98.3v399.675h641.475zM338.813 426.768h346.375c7.069 0 12.8-5.731 12.8-12.8v-346.375c0-7.069-5.731-12.8-12.8-12.8h-346.375c-7.069 0-12.8 5.731-12.8 12.8v346.375c0 7.069 5.731 12.8 12.8 12.8z" />
<glyph unicode="&#xe932;" glyph-name="print-area-clutch-back" d="M982.788 791.467h-17.624c6.857 17.476 11.558 37.712 13.155 58.816 0.043 18.016-13.987 32.047-31.294 32.047s-31.337-14.030-31.337-31.337c1.641-21.813 6.34-42.049 13.685-60.966l-888.159 1.44c-0.001 0-0.001 0-0.002 0-17.672 0-31.998-14.326-31.998-31.998 0-0.001 0-0.002 0-0.002v-804.074c0-0.001 0-0.001 0-0.002 0-17.672 14.326-31.998 31.998-31.998 0.001 0 0.002 0 0.002 0h941.575c0.001 0 0.001 0 0.002 0 17.672 0 31.998 14.326 31.998 31.998 0 0.001 0 0.002 0 0.002v804.074c0 0.001 0 0.001 0 0.002 0 17.672-14.326 31.998-31.998 31.998-0.001 0-0.002 0-0.002 0zM950.788-12.608h-877.575v740.075h877.575zM243.288 487.143h537.425c7.069 0 12.8-5.731 12.8-12.8v-451.375c0-7.069-5.731-12.8-12.8-12.8h-537.425c-7.069 0-12.8 5.731-12.8 12.8v451.375c0 7.069 5.731 12.8 12.8 12.8z" />
<glyph unicode="&#xe933;" glyph-name="print-area-clutch-front" d="M982.788 791.467h-887.342c6.852 17.476 11.551 37.712 13.149 58.815 0.043 18.018-13.987 32.048-31.294 32.048s-31.337-14.030-31.337-31.337c1.64-21.813 6.341-42.049 13.69-60.964l-18.44 1.439c-0.001 0-0.001 0-0.002 0-17.672 0-31.998-14.326-31.998-31.998 0-0.001 0-0.002 0-0.002v-804.074c0-0.001 0-0.001 0-0.002 0-17.672 14.326-31.998 31.998-31.998 0.001 0 0.002 0 0.002 0h941.575c0.001 0 0.001 0 0.002 0 17.672 0 31.998 14.326 31.998 31.998 0 0.001 0 0.002 0 0.002v804.074c0 0.001 0 0.001 0 0.002 0 17.672-14.326 31.998-31.998 31.998-0.001 0-0.002 0-0.002 0zM950.788-12.608h-877.575v740.075h877.575zM243.288 487.143h537.425c7.069 0 12.8-5.731 12.8-12.8v-451.375c0-7.069-5.731-12.8-12.8-12.8h-537.425c-7.069 0-12.8 5.731-12.8 12.8v451.375c0 7.069 5.731 12.8 12.8 12.8z" />
<glyph unicode="&#xe934;" glyph-name="print-area-handtowel-front" d="M914.813 755.143h-806.45c-0.001 0-0.001 0-0.002 0-17.672 0-31.998-14.326-31.998-31.998 0-0.001 0-0.002 0-0.002v-767.75c0-0.001 0-0.001 0-0.002 0-17.672 14.326-31.998 31.998-31.998 0.001 0 0.002 0 0.002 0h806.451c0.001 0 0.001 0 0.002 0 17.672 0 31.998 14.326 31.998 31.998 0 0.001 0 0.002 0 0.002v767.75c0 0.001 0 0.001 0 0.002 0 17.672-14.326 31.998-31.998 31.998-0.001 0-0.003 0-0.004 0zM882.813-12.607h-742.45v703.75h742.451zM234.838 628.793h553.5c7.069 0 12.8-5.731 12.8-12.8v-553.475c0-7.069-5.731-12.8-12.8-12.8h-553.5c-7.069 0-12.8 5.731-12.8 12.8v553.475c0 7.069 5.731 12.8 12.8 12.8z" />
<glyph unicode="&#xe935;" glyph-name="print-area-long-tshirt-back" d="M1001.663 585.768c-0.613 0.775-1.275 1.55-1.962 2.3l-174.438 185.175c-5.538 5.551-12.353 9.826-19.967 12.347l-124.97 39.703c-5.405 1.214-11.613 1.91-17.984 1.91-7.452 0-14.682-0.952-21.574-2.741-37.451-5.632-81.351-8.923-126.019-8.923-0.966 0-1.933 0.002-2.898 0.005-0.665-0.003-1.63-0.005-2.594-0.005-44.67 0-88.571 3.292-131.473 9.646-1.468 1.051-8.728 1.994-16.209 1.994-6.298 0-12.439-0.668-18.358-1.937l-124.403-39.623c-8.138-2.758-15.077-7.219-20.675-12.987l-173.512-184.589c-0.688-0.725-1.325-1.475-1.937-2.25-8.078-9.377-13.075-21.608-13.311-35l0.586-217.424c0-0.071-0.001-0.155-0.001-0.239 0-10.025 2.98-19.353 8.103-27.148l112.122-180.888c7.444-10.888 18.794-18.636 31.992-21.246 2.851-0.58 5.758-0.882 8.736-0.882 4.439 0 8.722 0.671 12.752 1.917l-2.88-130.714c-0.006-0.299-0.010-0.651-0.010-1.003 0-27.475 22.263-49.751 49.733-49.772h562.978c27.472 0.022 49.734 22.298 49.734 49.773 0 0.335-0.003 0.669-0.010 1.002l-2.568 130.325c3.634-0.945 7.805-1.488 12.104-1.488 3.125 0 6.182 0.287 9.148 0.835 13.53 2.791 25.094 10.896 32.423 22.035l111.394 179.243c5.414 7.931 8.65 17.724 8.663 28.272l0.588 217.353c-0.239 13.432-5.231 25.653-13.361 35.097zM950.388 337.293l-103.987-167.325c-1.105 0.137-2.385 0.215-3.683 0.215-1.185 0-2.354-0.065-3.505-0.192l-5.688 295.952c-0.379 17.383-14.56 31.33-31.999 31.33-17.677 0-32.006-14.33-32.006-32.006 0-0.202 0.002-0.403 0.006-0.604l9.424-477.27h-533.9l9.425 477.3c0.003 0.171 0.005 0.372 0.005 0.574 0 17.677-14.33 32.006-32.006 32.006-17.439 0-31.62-13.947-31.998-31.295l-5.832-296.041c-1.132 0.135-2.442 0.213-3.771 0.213-1.139 0-2.265-0.057-3.375-0.168l-103.547 167.261-0.563 209.225 168.563 179.325 117.287 37.299c3.487-0.3 8.388-1.050 14.775-1.925 40.811-6.127 87.908-9.626 135.823-9.626 0.761 0 1.521 0.001 2.281 0.003 0.529-0.002 1.295-0.003 2.060-0.003 47.91 0 95.003 3.5 141.036 10.258 1.162 0.245 6.049 0.995 9.549 1.295l117.275-37.275 168.912-179.35zM319.276 625.518h385.8c7.069 0 12.8-5.731 12.8-12.8v-459.375c0-7.069-5.731-12.8-12.8-12.8h-385.8c-7.069 0-12.8 5.731-12.8 12.8v459.375c0 7.069 5.731 12.8 12.8 12.8z" />
<glyph unicode="&#xe936;" glyph-name="print-area-long-tshirt-front" d="M1001.663 585.768c-0.613 0.775-1.275 1.55-1.962 2.3l-174.438 185.175c-5.538 5.551-12.353 9.826-19.967 12.347l-124.97 39.703c-4.586 1.547-9.868 2.439-15.358 2.439-20.424 0-37.963-12.351-45.556-29.992-19.763-37.323-58.050-62.094-102.122-62.094-1.86 0-3.71 0.044-5.549 0.131-1.325-0.088-3.181-0.132-5.048-0.132-43.937 0-82.125 24.615-101.527 60.806-7.955 18.768-25.601 31.278-46.17 31.278-5.434 0-10.664-0.873-15.558-2.487l-124.625-39.625c-8.138-2.758-15.077-7.219-20.675-12.987l-173.512-184.589c-0.688-0.725-1.325-1.475-1.937-2.25-8.078-9.377-13.075-21.608-13.311-35l0.586-217.424c0-0.071-0.001-0.155-0.001-0.239 0-10.025 2.98-19.353 8.103-27.148l112.122-180.888c7.444-10.888 18.794-18.636 31.992-21.246 2.853-0.58 5.763-0.882 8.743-0.882 4.475 0 8.791 0.681 12.851 1.944l-2.986-130.741c-0.006-0.299-0.010-0.651-0.010-1.003 0-27.475 22.263-49.751 49.733-49.772h562.978c27.472 0.022 49.734 22.298 49.734 49.774 0 0.343-0.003 0.686-0.010 1.028l-2.673 130.333c3.667-0.97 7.876-1.526 12.216-1.526 3.122 0 6.177 0.288 9.139 0.839 13.531 2.791 25.095 10.896 32.424 22.035l111.395 179.243c5.414 7.931 8.65 17.724 8.663 28.272l0.588 217.353c-0.239 13.432-5.231 25.653-13.361 35.097zM245.063-12.607l3.257 158.902 58.156 41.452v-73.503c0-0.002 0-0.005 0-0.007 0-7.065 5.727-12.793 12.793-12.793 0.003 0 0.005 0 0.008 0h385.799c0.002 0 0.005 0 0.007 0 7.065 0 12.793 5.727 12.793 12.793 0 0.003 0 0.005 0 0.008v73.25l57.806-41.205 3.256-158.895zM950.388 337.294l-102.050-164.2-98.3 70.075 79.713 111.8c3.718 5.154 5.947 11.598 5.947 18.562 0 0.268-0.003 0.536-0.010 0.802l-2.175 91.736c-0.085 17.292-14.123 31.278-31.428 31.278-0.465 0-0.928-0.010-1.388-0.030-17.276-0.431-31.168-14.592-31.168-31.997 0-0.264 0.003-0.527 0.010-0.789l1.924-81.086-53.587-75.183v265.331c0 0.002 0 0.005 0 0.007 0 7.065-5.727 12.793-12.793 12.793-0.003 0-0.005 0-0.008 0h-385.799c-0.002 0-0.005 0-0.007 0-7.065 0-12.793-5.727-12.793-12.793 0-0.003 0-0.005 0-0.008v-265.801l-53.938 75.652 1.926 81.125c0.006 0.223 0.009 0.487 0.009 0.751 0 17.406-13.892 31.566-31.194 31.999-0.409 0.016-0.842 0.025-1.278 0.025-17.32 0-31.377-13.973-31.513-31.261l-2.176-91.789c-0.006-0.227-0.009-0.495-0.009-0.763 0-6.964 2.229-13.408 6.011-18.657l79.66-111.706-98.275-70.049-101.75 164.125-0.563 209.225 168.563 179.325 109.688 34.875c32.114-53.618 89.9-88.954 155.94-88.954 1.555 0 3.105 0.020 4.651 0.059 1.077-0.038 2.614-0.058 4.155-0.058 66.045 0 123.835 35.347 155.484 88.155l110.169-34.052 168.912-179.35z" />
<glyph unicode="&#xe937;" glyph-name="print-area-poloshirt-back" d="M319.276 625.518h385.8c7.069 0 12.8-5.731 12.8-12.8v-459.375c0-7.069-5.731-12.8-12.8-12.8h-385.8c-7.069 0-12.8 5.731-12.8 12.8v459.375c0 7.069 5.731 12.8 12.8 12.8zM950.251 741.393l-229.45 71.949-58.713 50.55c-5.566 4.816-12.875 7.75-20.87 7.75-0.002 0-0.003 0-0.005 0h-258.237c-0.001 0-0.003 0-0.004 0-7.991 0-15.297-2.934-20.898-7.784l-58.673-50.466-229.675-71.999c-20.34-6.52-34.805-25.264-34.805-47.386 0-2.333 0.161-4.628 0.472-6.875l31.108-233.265c3.391-24.504 24.176-43.177 49.333-43.225h55.706l-8.925-436.475c-0.007-0.31-0.011-0.675-0.011-1.041 0-27.463 22.261-49.728 49.723-49.734h591.387c27.465 0.018 49.722 22.286 49.722 49.754 0 0.35-0.004 0.7-0.011 1.048l-8.987 436.448h55.775c25.12 0.078 45.864 18.713 49.245 42.912l31.18 233.888c0.275 1.963 0.432 4.23 0.432 6.535 0 22.134-14.471 40.888-34.467 47.318zM394.851 807.643h234.488l22.053-18.984c-38.62-18.376-83.923-29.108-131.733-29.108-2.671 0-5.333 0.033-7.988 0.1-2.086-0.079-5.004-0.12-7.931-0.12-47.565 0-92.626 10.724-132.895 29.886zM891.688 474.643h-75.912c-0.006 0-0.013 0-0.020 0-17.659 0-31.974-14.315-31.974-31.974 0-0.238 0.003-0.474 0.008-0.711l9.362-454.565h-562.263l9.3 454.6c0.005 0.201 0.007 0.438 0.007 0.676 0 17.659-14.315 31.974-31.974 31.974-0.007 0-0.014 0-0.021 0h-75.899l-27.9 209.275 209.126 65.597c52.534-33.94 116.725-54.113 185.628-54.113 4.539 0 9.058 0.088 13.555 0.261 3.182-0.171 7.677-0.258 12.192-0.258 68.969 0 133.234 20.139 187.235 54.858l207.463-66.32z" />
<glyph unicode="&#xe938;" glyph-name="print-area-poloshirt-front" d="M950.463 741.768l-224.873 70.505c-0.998 1.101-2.035 2.113-3.131 3.057l-63.571 45.213c-6.145 4.33-13.787 6.921-22.034 6.921-7.758 0-14.98-2.292-21.026-6.236l-103.711-67.739-104.003 67.905c-5.874 3.807-13.056 6.071-20.766 6.071-8.295 0-15.977-2.619-22.266-7.076l-63.13-44.919c-1.129-0.974-2.156-1.972-3.12-3.028l-225.343-70.697c-20.328-6.5-34.789-25.225-34.789-47.327 0-2.353 0.164-4.668 0.481-6.934l31.108-233.364c3.397-24.506 24.185-43.177 49.345-43.225h55.755l-8.937-436.724c-0.006-0.299-0.010-0.651-0.010-1.003 0-27.475 22.263-49.751 49.733-49.772h591.689c27.467 0.031 49.722 22.305 49.722 49.776 0 0.342-0.003 0.684-0.010 1.025l-8.974 436.699h55.8c25.119 0.097 45.858 18.72 49.269 42.91l31.193 233.989c0.277 1.971 0.435 4.248 0.435 6.563 0 22.138-14.479 40.894-34.484 47.315zM636.251 798.118l30.788-21.9c-14.517-26.307-32.143-48.818-52.797-68.133l-52.029 41.683zM387.963 798.118l74.025-48.35-51.876-41.825c-20.81 19.452-38.434 41.964-52.233 66.888zM891.901 474.892h-75.962c-0.006 0-0.013 0-0.020 0-17.659 0-31.974-14.315-31.974-31.974 0-0.238 0.003-0.474 0.008-0.711l9.349-454.815h-562.575l9.313 454.85c0.005 0.201 0.007 0.438 0.007 0.676 0 17.659-14.315 31.974-31.974 31.974-0.007 0-0.014 0-0.021 0h-75.962l-27.913 209.4 196.806 61.742c22.074-40.159 50.572-73.993 84.501-101.366 7.052-5.461 15.204-8.451 24.055-8.451 9.107 0 17.475 3.166 24.062 8.458l-0.049-0.033 78.55 63.33 78.576-63.355c6.492-5.233 14.841-8.4 23.929-8.4 0.038 0 0.077 0 0.115 0s0.089 0 0.141 0c8.794 0 16.888 3.002 23.311 8.037 34.462 27.79 62.94 61.597 84.124 99.991l197.544-59.927zM593.651 586.393h138.65c7.069 0 12.8-5.731 12.8-12.8v-177.8c0-7.069-5.731-12.8-12.8-12.8h-138.65c-7.069 0-12.8 5.731-12.8 12.8v177.8c0 7.069 5.731 12.8 12.8 12.8zM535.431 642.010c0-13.757-11.153-24.91-24.91-24.91s-24.91 11.153-24.91 24.91c0 13.757 11.153 24.91 24.91 24.91s24.91-11.153 24.91-24.91zM535.431 524.571c0-13.757-11.153-24.91-24.91-24.91s-24.91 11.153-24.91 24.91c0 13.757 11.153 24.91 24.91 24.91s24.91-11.153 24.91-24.91z" />
<glyph unicode="&#xe939;" glyph-name="print-area-pouch-back" d="M982.788 573.918h-17.445c6.854 17.475 11.554 37.712 13.152 58.815 0.043 18.017-13.987 32.048-31.294 32.048s-31.337-14.030-31.337-31.337c1.641-21.813 6.341-42.050 13.687-60.965l-888.35 1.44c-0.001 0-0.001 0-0.002 0-17.672 0-31.998-14.326-31.998-31.998 0-0.001 0-0.002 0-0.002v-586.525c0-0.001 0-0.001 0-0.002 0-17.672 14.326-31.998 31.998-31.998 0.001 0 0.002 0 0.002 0h941.587c0.001 0 0.001 0 0.002 0 17.672 0 31.998 14.326 31.998 31.998 0 0.001 0 0.002 0 0.002v586.525c0 0.001 0 0.001 0 0.002 0 17.672-14.326 31.998-31.998 31.998-0.001 0-0.002 0-0.002 0zM950.788-12.607h-877.587v522.525h877.587zM243.288 487.143h537.425c7.069 0 12.8-5.731 12.8-12.8v-451.375c0-7.069-5.731-12.8-12.8-12.8h-537.425c-7.069 0-12.8 5.731-12.8 12.8v451.375c0 7.069 5.731 12.8 12.8 12.8z" />
<glyph unicode="&#xe93a;" glyph-name="print-area-pouch-front" d="M982.788 573.918h-887.508c6.854 17.475 11.554 37.712 13.152 58.815 0.043 18.017-13.987 32.048-31.294 32.048s-31.337-14.030-31.337-31.337c1.641-21.813 6.341-42.050 13.687-60.965l-18.287 1.44c-0.001 0-0.001 0-0.002 0-17.672 0-31.998-14.326-31.998-31.998 0-0.001 0-0.002 0-0.002v-586.525c0-0.001 0-0.001 0-0.002 0-17.672 14.326-31.998 31.998-31.998 0.001 0 0.002 0 0.002 0h941.587c0.001 0 0.001 0 0.002 0 17.672 0 31.998 14.326 31.998 31.998 0 0.001 0 0.002 0 0.002v586.525c0 0.001 0 0.001 0 0.002 0 17.672-14.326 31.998-31.998 31.998-0.001 0-0.002 0-0.002 0zM950.788-12.607h-877.587v522.525h877.587zM243.288 487.143h537.425c7.069 0 12.8-5.731 12.8-12.8v-451.375c0-7.069-5.731-12.8-12.8-12.8h-537.425c-7.069 0-12.8 5.731-12.8 12.8v451.375c0 7.069 5.731 12.8 12.8 12.8z" />
<glyph unicode="&#xe93b;" glyph-name="print-area-pull-parka-back" d="M1001.663 585.768c-0.613 0.775-1.275 1.55-1.962 2.3l-174.438 185.175c-0.955 0.963-2.15 1.642-3.183 2.523-0.743 27.314-12.617 51.716-31.228 68.943-16.693 15.312-38.955 24.659-63.399 24.659-0.115 0-0.229 0-0.344-0.001-36.895 54.8-109.020 54.325-191.42 54.1l-23.688-0.075-23.687 0.075c-82.262 0.225-154.512 0.7-191.437-54.1-0.097 0-0.212 0.001-0.328 0.001-24.445 0-46.706-9.348-63.404-24.663-18.628-17.244-30.508-41.684-31.223-68.905-1.251-1.187-2.601-1.976-3.795-3.181l-173.5-184.576c-0.688-0.725-1.338-1.5-1.937-2.275-8.081-9.366-13.080-21.59-13.311-34.976l0.586-217.424c0-0.071-0.001-0.155-0.001-0.239 0-10.025 2.98-19.353 8.103-27.148l112.122-180.888c7.444-10.888 18.794-18.636 31.992-21.246 2.851-0.58 5.758-0.882 8.736-0.882 4.439 0 8.722 0.671 12.752 1.917l-2.88-130.714c-0.006-0.299-0.010-0.651-0.010-1.003 0-27.475 22.263-49.751 49.733-49.772h562.978c27.472 0.022 49.734 22.298 49.734 49.773 0 0.335-0.003 0.669-0.010 1.002l-2.573 130.638c3.514-1.029 7.573-1.691 11.763-1.837 0.116-0.002 0.153-0.002 0.189-0.002 17.54 0 32.947 9.132 41.727 22.9l111.394 179.251c5.414 7.931 8.65 17.724 8.663 28.272l0.588 217.353c-0.239 13.432-5.231 25.653-13.361 35.097zM276.301 797.443c5.389 4.901 12.583 7.902 20.478 7.902 0.148 0 0.297-0.001 0.444-0.003 3.438-0.019 6.781-0.483 9.964-1.337 2.047-0.535 4.711-0.878 7.455-0.878 13.34 0 24.788 8.102 29.691 19.654 13.955 34.236 48.705 37.211 143.68 36.686l23.987-0.074 23.975 0.075c95 0.625 129.725-2.45 143.612-36.475 4.962-11.767 16.402-19.876 29.735-19.876 2.757 0 5.433 0.347 7.987 0.999 2.579 0.836 5.801 1.345 9.142 1.345 8.161 0 15.612-3.040 21.283-8.048 6.656-6.221 10.826-15.096 10.826-24.946 0-1.835-0.145-3.637-0.424-5.394-11.274-28.131-160.611-108.481-246.137-108.481s-234.862 80.35-245.837 107.325c-0.395 1.957-0.62 4.207-0.62 6.509 0 9.842 4.126 18.721 10.743 25.001zM950.388 337.293l-103.987-167.325c-1.105 0.137-2.385 0.215-3.683 0.215-1.185 0-2.354-0.065-3.505-0.192l-5.688 295.952c-0.122 17.363-14.226 31.392-31.606 31.392-0.358 0-0.715-0.006-1.071-0.018-17.354-0.352-31.329-14.546-31.329-32.004 0-0.218 0.002-0.435 0.007-0.652l9.424-477.268h-533.9l9.425 477.3c0.003 0.171 0.005 0.372 0.005 0.574 0 17.677-14.33 32.006-32.006 32.006-17.439 0-31.62-13.947-31.998-31.295l-5.832-296.042c-1.132 0.135-2.442 0.213-3.771 0.213-1.139 0-2.265-0.057-3.375-0.168l-103.547 167.261-0.563 209.225 155.616 165.564c28.151-25.711 60.586-47.389 95.984-63.745 18.984-9.078 35.701-16.361 52.165-22.769h-57.876c-0.002 0-0.005 0-0.007 0-7.065 0-12.793-5.727-12.793-12.793 0-0.003 0-0.005 0-0.008v-459.375c0-0.002 0-0.005 0-0.007 0-7.065 5.727-12.793 12.793-12.793 0.003 0 0.005 0 0.008 0h385.799c0.002 0 0.005 0 0.007 0 7.065 0 12.793 5.727 12.793 12.793 0 0.003 0 0.005 0 0.008v459.375c0 0.002 0 0.005 0 0.007 0 7.065-5.727 12.793-12.793 12.793-0.003 0-0.005 0-0.008 0h-58.226c16.464 6.408 33.181 13.691 49.827 21.8 37.741 17.328 70.18 39.011 98.627 64.992l155.648-165.842z" />
<glyph unicode="&#xe93c;" glyph-name="print-area-pull-parka-front" d="M319.276 586.393h385.8c7.069 0 12.8-5.731 12.8-12.8v-229.675c0-7.069-5.731-12.8-12.8-12.8h-385.8c-7.069 0-12.8 5.731-12.8 12.8v229.675c0 7.069 5.731 12.8 12.8 12.8zM1001.663 585.768c-0.613 0.775-1.275 1.55-1.962 2.3l-168.73 179.116c0.095 1.606 0.149 3.483 0.149 5.374 0 28.063-11.898 53.347-30.924 71.083-17.722 15.985-41.234 25.731-67.022 25.731-0.263 0-0.526-0.001-0.788-0.003-13.395 18.053-32.871 30.956-55.35 35.742-5.817 1.186-11.801 1.803-17.93 1.803-24.95 0-47.513-10.222-63.729-26.707-32.193-40.763-60.126-87.192-81.802-136.972-24.823 49.78-52.755 96.209-85.95 138.293-15.17 15.177-37.704 25.412-62.628 25.412-6.165 0-12.183-0.626-17.995-1.818-22.514-4.796-41.99-17.698-55.249-35.504-0.437-0.245-0.746-0.243-1.055-0.243-25.747 0-49.216-9.748-66.919-25.756-19.004-17.71-30.907-42.996-30.907-71.062 0-1.889 0.054-3.765 0.16-5.627l-168.405-178.884c-0.688-0.725-1.325-1.475-1.937-2.25-8.078-9.377-13.075-21.608-13.311-35l0.586-217.425c0-0.071-0.001-0.155-0.001-0.239 0-10.025 2.98-19.353 8.103-27.148l112.122-180.888c7.444-10.888 18.794-18.636 31.992-21.246 2.853-0.58 5.763-0.882 8.743-0.882 4.475 0 8.791 0.681 12.851 1.944l-2.986-130.741c-0.006-0.299-0.010-0.651-0.010-1.003 0-27.475 22.263-49.751 49.733-49.772h562.978c27.472 0.022 49.734 22.298 49.734 49.774 0 0.343-0.003 0.686-0.010 1.028l-2.679 130.629c3.547-1.042 7.643-1.71 11.872-1.853 0.114-0.002 0.15-0.002 0.187-0.002 17.54 0 32.947 9.132 41.727 22.9l111.394 179.25c5.414 7.931 8.65 17.724 8.663 28.272l0.588 217.353c-0.239 13.432-5.231 25.653-13.361 35.097zM640.313 834.643c4.752 4.995 11.4 8.147 18.785 8.3 0.038 0 0.051 0 0.064 0 1.682 0 3.323-0.173 4.907-0.502 10.134-2.549 18.277-9.941 21.849-19.556 5.038-11.82 16.357-19.801 29.541-19.801 2.722 0 5.365 0.34 7.888 0.981 2.826 0.899 6.329 1.445 9.959 1.445 9.012 0 17.24-3.362 23.496-8.9 6.328-6.004 10.288-14.522 10.288-23.965 0-1.382-0.085-2.743-0.249-4.080-0.665-0.852-1.34-2.026-1.935-3.246-0.363-1.044-0.217-1.915-0.423-2.787-15.22-20.247-94.508-57.195-202.017-66.541 22.481 52.978 48.56 98.589 79.23 140.637zM267.238 796.643c5.902 5.413 13.803 8.73 22.478 8.73 0.201 0 0.402-0.002 0.602-0.005 3.739-0.020 7.385-0.511 10.863-1.417 1.993-0.523 4.632-0.862 7.35-0.862 13.186 0 24.508 7.979 29.402 19.372 3.722 10.040 11.865 17.432 21.938 19.962 1.628 0.32 3.25 0.477 4.909 0.477 7.463 0 14.185-3.171 18.893-8.239 29.308-40.079 55.384-85.689 76.125-134.128-105.824 4.787-185.127 41.74-200.229 61.631-0.223 0.997-0.070 1.991-0.394 2.981-0.66 1.364-1.316 2.507-2.041 3.599-0.088 1.103-0.179 2.508-0.179 3.934 0 9.425 3.943 17.929 10.269 23.953zM950.388 337.293l-102.050-164.2-98.3 70.075 79.713 111.8c3.718 5.154 5.947 11.598 5.947 18.562 0 0.268-0.003 0.536-0.010 0.802l-2.175 91.736c-0.177 17.308-14.249 31.271-31.583 31.271-0.41 0-0.819-0.008-1.226-0.023-17.283-0.432-31.175-14.592-31.175-31.998 0-0.264 0.003-0.527 0.010-0.789l1.924-81.086-80.563-113.024c-4.122-5.316-7.241-11.632-8.946-18.506-0.933-0.26-1.932-0.211-2.943-0.211-1.467 0-2.911-0.103-4.323-0.302-14.261-3.278-24.86-15.999-24.86-31.195 0-2.476 0.281-4.887 0.814-7.202l36.182-161.91c3.272-14.465 16.015-25.104 31.244-25.104 17.67 0 31.995 14.324 31.995 31.995 0 2.503-0.287 4.938-0.831 7.276l-26.55 118.807 53.001-37.78 3.256-158.895h-533.875l3.257 158.902 52.998 37.775-26.605-119.027c-0.501-2.121-0.789-4.557-0.789-7.060 0-17.67 14.324-31.995 31.995-31.995 15.228 0 27.972 10.639 31.203 24.89l36.278 162.339c0.491 2.099 0.772 4.51 0.772 6.986 0 15.196-10.599 27.917-24.808 31.172-1.434 0.214-2.843 0.312-4.275 0.312-1.020 0-2.029-0.050-3.024-0.147-1.456 6.817-4.337 12.786-8.261 17.914l-81.268 113.987 1.925 81.126c0.006 0.223 0.009 0.487 0.009 0.751 0 17.406-13.892 31.566-31.194 31.999-0.453 0.020-0.937 0.031-1.424 0.031-17.293 0-31.317-13.994-31.366-31.276l-2.176-91.781c-0.006-0.227-0.009-0.495-0.009-0.763 0-6.964 2.229-13.408 6.011-18.657l79.66-111.706-98.275-70.049-101.75 164.125-0.563 209.225 151.975 161.692c56.485-47.788 178.631-78.367 286.638-78.367 108.030 0 230.186 30.587 286.653 78.384l152.297-161.709z" />
<glyph unicode="&#xe93d;" glyph-name="print-area-towel-left" d="M982.963 755.143h-118.723c-0.903 0.077-1.678 0.525-2.601 0.525s-1.699-0.449-2.601-0.525h-817.674c-0.001 0-0.001 0-0.002 0-17.672 0-31.998-14.326-31.998-31.998 0-0.001 0-0.002 0-0.002v-767.75c0-0.001 0-0.001 0-0.002 0-17.672 14.326-31.998 31.998-31.998 0.001 0 0.002 0 0.002 0h941.6c0.001 0 0.001 0 0.002 0 17.672 0 31.998 14.326 31.998 31.998 0 0.001 0 0.002 0 0.002v767.75c0 0.001 0 0.001 0 0.002 0 17.672-14.326 31.998-31.998 31.998-0.001 0-0.002 0-0.002 0zM73.363 691.143h737.345c-4.215-9.017-6.674-19.578-6.674-30.713 0-0.25 0.001-0.5 0.004-0.75-0.001-0.047-0.001-0.147-0.001-0.247 0-19.911 7.515-38.066 19.863-51.785 5.237-6.53 5.738-7.28 5.738-11.93 0-4.625-0.5-5.376-5.775-11.975-12.304-13.745-19.825-31.995-19.825-52.002 0-19.993 7.511-38.232 19.866-52.048 5.233-6.525 5.734-7.275 5.734-11.925s-0.5-5.4-5.8-12.050c-12.288-13.737-19.8-31.971-19.8-51.961 0-20.003 7.522-38.249 19.891-52.064 5.209-6.501 5.71-7.251 5.71-11.825 0-4.65-0.5-5.376-5.8-12-12.289-13.746-19.8-31.99-19.8-51.987s7.511-38.241 19.866-52.063c5.233-6.574 5.733-7.324 5.733-11.974s-0.5-5.4-5.8-12.050c-12.289-13.751-19.8-31.998-19.8-52s7.511-38.249 19.867-52.076c5.233-6.574 5.733-7.324 5.733-11.974 0-4.725-0.5-5.475-5.825-12.15-12.271-13.656-19.776-31.811-19.776-51.719 0-0.108 0-0.216 0.001-0.323-0.003-0.225-0.005-0.511-0.005-0.797 0-11.381 2.552-22.166 7.114-31.814l-737.785 0.453zM950.963-12.607h-64.177c-3.719 7.632-8.026 14.21-13.043 20.171-5.205 6.529-5.705 7.278-5.705 12.004 0 4.7 0.5 5.45 5.8 12.125 12.289 13.76 19.8 32.015 19.8 52.025s-7.511 38.265-19.867 52.101c-5.232 6.574-5.733 7.324-5.733 11.974s0.5 5.4 5.8 12.050c12.289 13.751 19.8 31.998 19.8 52s-7.511 38.249-19.867 52.076c-5.233 6.574-5.733 7.324-5.733 11.974 0 4.625 0.5 5.376 5.775 11.975 12.303 13.731 19.825 31.968 19.825 51.962s-7.522 38.231-19.89 52.036c-5.21 6.526-5.71 7.276-5.71 11.876 0 4.65 0.5 5.4 5.8 12.025 12.289 13.751 19.8 31.998 19.8 52s-7.511 38.249-19.867 52.076c-5.233 6.524-5.733 7.274-5.733 11.924 0 4.625 0.5 5.376 5.775 11.975 12.304 13.745 19.825 31.995 19.825 52.002 0 19.993-7.511 38.232-19.866 52.048-5.233 6.525-5.734 7.275-5.734 11.925 0 4.625 0.5 5.376 5.775 11.975 4.815 5.656 9.066 12.042 12.518 18.9l64.631 0.55zM149.613 628.793h464.85c7.069 0 12.8-5.731 12.8-12.8v-553.475c0-7.069-5.731-12.8-12.8-12.8h-464.85c-7.069 0-12.8 5.731-12.8 12.8v553.475c0 7.069 5.731 12.8 12.8 12.8z" />
<glyph unicode="&#xe93e;" glyph-name="print-area-towel-right" d="M982.963 755.143h-792.048c-0.903 0.077-1.678 0.525-2.601 0.525s-1.699-0.449-2.601-0.525h-144.349c-0.001 0-0.001 0-0.002 0-17.672 0-31.998-14.326-31.998-31.998 0-0.001 0-0.002 0-0.002v-767.75c0-0.001 0-0.001 0-0.002 0-17.672 14.326-31.998 31.998-31.998 0.001 0 0.002 0 0.002 0h941.6c0.001 0 0.001 0 0.002 0 17.672 0 31.998 14.326 31.998 31.998 0 0.001 0 0.002 0 0.002v767.75c0 0.001 0 0.001 0 0.002 0 17.672-14.326 31.998-31.998 31.998-0.001 0-0.002 0-0.002 0zM73.363 691.143h64.020c-4.214-9.017-6.673-19.577-6.673-30.712 0-0.251 0.001-0.501 0.004-0.751-0.001-0.046-0.001-0.147-0.001-0.247 0-19.911 7.515-38.066 19.863-51.785 5.237-6.53 5.738-7.28 5.738-11.93 0-4.625-0.5-5.376-5.775-11.975-12.304-13.745-19.825-31.995-19.825-52.002 0-19.993 7.511-38.232 19.866-52.048 5.233-6.525 5.734-7.275 5.734-11.925s-0.5-5.4-5.8-12.050c-12.288-13.737-19.8-31.971-19.8-51.961 0-20.003 7.522-38.249 19.891-52.064 5.209-6.501 5.71-7.251 5.71-11.825 0-4.65-0.5-5.376-5.8-12-12.289-13.746-19.8-31.99-19.8-51.987s7.511-38.241 19.866-52.063c5.233-6.574 5.733-7.324 5.733-11.974s-0.5-5.4-5.8-12.050c-12.289-13.751-19.8-31.998-19.8-52s7.511-38.249 19.867-52.076c5.233-6.574 5.733-7.324 5.733-11.974 0-4.725-0.5-5.475-5.825-12.15-12.271-13.656-19.776-31.811-19.776-51.719 0-0.108 0-0.216 0.001-0.324-0.003-0.225-0.005-0.511-0.005-0.798 0-11.381 2.552-22.166 7.114-31.814l-64.46 0.453zM950.963-12.607h-737.501c-3.719 7.632-8.026 14.21-13.043 20.171-5.205 6.529-5.705 7.278-5.705 12.004 0 4.7 0.5 5.45 5.8 12.125 12.289 13.76 19.8 32.015 19.8 52.025s-7.511 38.265-19.867 52.101c-5.232 6.574-5.733 7.324-5.733 11.974s0.5 5.4 5.8 12.050c12.289 13.751 19.8 31.998 19.8 52s-7.511 38.249-19.867 52.076c-5.233 6.574-5.733 7.324-5.733 11.974 0 4.625 0.5 5.376 5.775 11.975 12.303 13.731 19.825 31.968 19.825 51.962s-7.522 38.231-19.89 52.036c-5.21 6.526-5.71 7.276-5.71 11.876 0 4.65 0.5 5.4 5.8 12.025 12.289 13.751 19.8 31.998 19.8 52s-7.511 38.249-19.867 52.076c-5.233 6.524-5.733 7.274-5.733 11.924 0 4.625 0.5 5.376 5.775 11.975 12.304 13.745 19.825 31.995 19.825 52.002 0 19.993-7.511 38.232-19.866 52.048-5.233 6.525-5.734 7.275-5.734 11.925 0 4.625 0.5 5.376 5.775 11.975 4.815 5.656 9.066 12.042 12.518 18.9l737.956 0.55zM409.888 628.793h464.85c7.069 0 12.8-5.731 12.8-12.8v-553.475c0-7.069-5.731-12.8-12.8-12.8h-464.85c-7.069 0-12.8 5.731-12.8 12.8v553.475c0 7.069 5.731 12.8 12.8 12.8z" />
<glyph unicode="&#xe93f;" glyph-name="print-area-tshirt-back" d="M950.238 741.393l-265.937 83.399c-4.84 1.698-10.42 2.678-16.23 2.678-5.050 0-9.927-0.741-14.528-2.12-34.545-6.531-74.693-10.319-115.726-10.319-9.080 0-18.116 0.185-27.106 0.553-6.408-0.367-15.439-0.552-24.513-0.552-41.043 0-81.201 3.788-120.143 11.034-0.21 0.687-5.086 1.442-10.139 1.442-5.636 0-11.053-0.939-16.103-2.669l-266.125-83.471c-20.326-6.509-34.783-25.237-34.783-47.342 0-2.339 0.162-4.641 0.475-6.894l31.095-233.314c3.428-24.476 24.197-43.115 49.331-43.176h55.719l-8.95-436.55c-0.006-0.282-0.009-0.615-0.009-0.948 0-27.471 22.264-49.742 49.733-49.752h591.389c0.001 0 0.003 0 0.005 0 27.465 0 49.73 22.265 49.73 49.73 0 0.359-0.004 0.716-0.011 1.073l-8.937 436.447h55.7c25.144 0.060 45.916 18.698 49.319 42.911l31.143 233.789c0.286 2.003 0.45 4.317 0.45 6.669 0 22.134-14.488 40.884-34.498 47.285zM891.725 474.643h-75.912c-0.006 0-0.013 0-0.020 0-17.659 0-31.974-14.315-31.974-31.974 0-0.238 0.003-0.474 0.008-0.711l9.313-454.565h-562.276l9.313 454.6c0.005 0.201 0.007 0.438 0.007 0.676 0 17.659-14.315 31.974-31.974 31.974-0.007 0-0.014 0-0.021 0h-75.912l-27.887 209.3 251.913 79c39.414-7.515 84.748-11.813 131.087-11.813 8.655 0 17.275 0.15 25.858 0.447 6.122-0.3 14.777-0.452 23.467-0.452 46.304 0 91.604 4.3 135.522 12.523l247.377-79.706zM319.276 625.518h385.8c7.069 0 12.8-5.731 12.8-12.8v-459.375c0-7.069-5.731-12.8-12.8-12.8h-385.8c-7.069 0-12.8 5.731-12.8 12.8v459.375c0 7.069 5.731 12.8 12.8 12.8z" />
</font>
</defs>
</svg>
